<?xml version="1.0" encoding="utf-8"?>
<!-- Generator: Adobe Illustrator 16.0.4, SVG Export Plug-In . SVG Version: 6.00 Build 0)  -->
<!DOCTYPE svg PUBLIC "-//W3C//DTD SVG 1.1//EN" "http://www.w3.org/Graphics/SVG/1.1/DTD/svg11.dtd">
<svg version="1.1" id="Layer_1" xmlns="http://www.w3.org/2000/svg" xmlns:xlink="http://www.w3.org/1999/xlink" x="0px" y="0px"
	 width="33.07px" height="49.606px" viewBox="0 0 33.07 49.606" enable-background="new 0 0 33.07 49.606" xml:space="preserve">
<polygon points="16.535,49.606 9.921,29.765 23.149,29.765 "/>
<g>
	<radialGradient id="SVGID_1_" cx="-7.1729" cy="-7.0752" r="70.2233" gradientUnits="userSpaceOnUse">
		<stop  offset="0.4977" style="stop-color:#FFFFFF"/>
		<stop  offset="1" style="stop-color:#01C0F0"/>
	</radialGradient>
	<path fill="url(#SVGID_1_)" d="M16.535,0C7.403,0,0,7.403,0,16.535c0,9.133,7.403,16.536,16.535,16.536S33.07,25.668,33.07,16.535
		C33.07,7.403,25.667,0,16.535,0z"/>
</g>
<g>
	<circle fill="#1C75BC" cx="16.535" cy="16.536" r="7.546"/>
	<path fill="#1C75BC" d="M16.535,24.082c-4.167,0-7.546-3.379-7.546-7.546s3.379-7.546,7.546-7.546c4.167,0,7.546,3.379,7.546,7.546
		S20.703,24.082,16.535,24.082z"/>
</g>
<g>
	<circle cx="16.535" cy="16.536" r="3.234"/>
	<path d="M16.535,19.771c-1.786,0-3.234-1.448-3.234-3.234s1.448-3.234,3.234-3.234s3.234,1.448,3.234,3.234
		S18.321,19.771,16.535,19.771z"/>
</g>
<g>
	<circle fill="#FFFFFF" cx="14.1" cy="14.293" r="1.38"/>
	<path fill="#FFFFFF" d="M14.1,15.673c-0.762,0-1.38-0.618-1.38-1.38s0.618-1.38,1.38-1.38c0.762,0,1.379,0.618,1.379,1.38
		S14.861,15.673,14.1,15.673z"/>
</g>
</svg>
