<?xml version="1.0" standalone="no"?>
<!DOCTYPE svg PUBLIC "-//W3C//DTD SVG 1.1//EN" "http://www.w3.org/Graphics/SVG/1.1/DTD/svg11.dtd" >
<svg xmlns="http://www.w3.org/2000/svg">
<metadata></metadata>
<defs>
<font id="scala_capsregular" horiz-adv-x="1024" >
<font-face units-per-em="2048" ascent="1638" descent="-410" />
<missing-glyph horiz-adv-x="512" />
<glyph horiz-adv-x="0" />
<glyph horiz-adv-x="682" />
<glyph unicode=" "  horiz-adv-x="512" />
<glyph unicode="&#x09;" horiz-adv-x="512" />
<glyph unicode="&#xa0;" horiz-adv-x="512" />
<glyph unicode="!" horiz-adv-x="540" d="M154 94q0 47 34.5 82t81.5 35t82 -35t35 -82t-35 -82t-82 -35t-81.5 35t-34.5 82zM180 1030h187l-56 -637h-82z" />
<glyph unicode="&#x22;" horiz-adv-x="837" d="M195 885v463h120v-463h-120zM524 885v463h119v-463h-119z" />
<glyph unicode="#" horiz-adv-x="1126" d="M10 438l21 117h237l56 266h-240l20 117h240l82 410h123l-80 -410h293l80 410h127l-82 -410h229l-20 -117h-230l-51 -266h232l-21 -117h-235l-84 -438h-127l84 438h-293l-88 -438h-125l88 438h-236zM393 555h293l53 266h-293z" />
<glyph unicode="$" horiz-adv-x="1112" d="M156 76l116 135q52 -59 80.5 -83.5t91.5 -64.5l78 7v540l-37 21q-188 104 -256.5 186t-68.5 203q0 146 101 246t261 114v119h94v-117q96 -3 163 -23t171 -77l-123 -131q-50 54 -77.5 77.5t-90.5 65.5l-43 -4v-504q225 -128 302 -213t77 -208q0 -116 -59 -211.5 t-158 -139.5q-37 -17 -68.5 -23t-93.5 -11v-119h-94v112q-133 7 -205.5 28t-160.5 75zM340 1075q0 -70 35.5 -115t146.5 -116v436q-88 -17 -135 -69.5t-47 -135.5zM616 84q111 44 156 93.5t45 127.5q0 73 -44 129t-157 125v-475z" />
<glyph unicode="%" horiz-adv-x="1740" d="M70 1014q0 149 105 254.5t253 105.5q149 0 253.5 -105.5t104.5 -254.5t-104.5 -254t-253.5 -105q-148 0 -253 105t-105 254zM195 1014q0 -98 68 -167t165 -69q98 0 167 69t69 167q0 97 -69 166t-167 69q-97 0 -165 -69t-68 -166zM236 -94l1144 1501h142l-1178 -1501h-108 zM954 332q0 149 105 253.5t254 104.5q148 0 253 -104.5t105 -253.5q0 -148 -105 -253.5t-253 -105.5q-149 0 -254 105.5t-105 253.5zM1077 332q0 -97 69 -165.5t167 -68.5q97 0 165 68.5t68 165.5q0 98 -68 166.5t-165 68.5q-98 0 -167 -68.5t-69 -166.5z" />
<glyph unicode="&#x26;" horiz-adv-x="1146" d="M96 219q0 82 45.5 143t177.5 156q-64 73 -88 122t-24 105q0 101 76 163.5t200 62.5q117 0 185.5 -48t68.5 -130q0 -84 -90 -144l-88 -57l-37 43q45 39 63.5 70t18.5 71q0 57 -35 95t-88 38q-56 0 -91.5 -40t-35.5 -103q0 -37 12 -63.5t50 -73.5l280 -359q40 58 58 94 t43 113h-119v74h344v-74h-139q-35 -102 -58 -149t-75 -123q106 -131 153 -131q36 0 78 59q3 4 10.5 15t12.5 18l57 -43q-65 -91 -106 -120.5t-105 -29.5q-61 0 -105.5 26t-99.5 91q-68 -63 -130.5 -90t-141.5 -27q-120 0 -198.5 70t-78.5 176zM270 246q0 -86 38.5 -139.5 t101.5 -53.5q46 0 86 19.5t102 74.5l-229 302q-56 -50 -77.5 -94.5t-21.5 -108.5z" />
<glyph unicode="'" horiz-adv-x="512" d="M197 885v463h118v-463h-118z" />
<glyph unicode="(" horiz-adv-x="837" d="M246 414q0 174 33 330.5t108 328.5q44 105 72 155.5t82 123.5h90q-94 -182 -152.5 -442t-58.5 -496t58.5 -497t152.5 -441h-90q-53 73 -81 123.5t-73 154.5q-75 172 -108 329t-33 331z" />
<glyph unicode=")" horiz-adv-x="837" d="M209 -524q92 180 150.5 441t58.5 497q0 235 -58 495.5t-151 442.5h88q55 -75 84 -126t72 -153q73 -173 106 -329t33 -330t-33 -330.5t-106 -329.5q-44 -101 -72.5 -152t-83.5 -126h-88z" />
<glyph unicode="*" d="M53 963l47 143l338 -145l-24 -78zM182 565l244 275l66 -47l-187 -318zM438 1352h152l-35 -367h-82zM532 795l66 47l246 -275l-123 -90zM586 961l338 145l47 -143l-361 -80z" />
<glyph unicode="," horiz-adv-x="512" d="M115 -207q73 58 102 99.5t29 87.5q0 45 -24 71t-83 45q25 67 53.5 92t79.5 25q49 0 83 -33.5t34 -79.5q0 -86 -58.5 -181.5t-166.5 -188.5z" />
<glyph unicode="-" horiz-adv-x="563" d="M86 389v156h391v-156h-391z" />
<glyph unicode="." horiz-adv-x="512" d="M135 98q0 49 35.5 84t85.5 35t85.5 -35t35.5 -84q0 -51 -35.5 -86t-85.5 -35t-85.5 35t-35.5 86z" />
<glyph unicode="/" horiz-adv-x="634" d="M0 -498l514 1850h121l-514 -1850h-121z" />
<glyph unicode="0" d="M72 668q0 190 61.5 352.5t165.5 256t223 93.5q120 0 224.5 -93.5t166.5 -255t62 -351.5q0 -189 -62 -350.5t-166.5 -254t-224.5 -92.5q-118 0 -222 93t-166 254t-62 348zM272 672q0 -173 31.5 -314t89.5 -223t131 -82q72 0 129.5 81.5t89 221.5t31.5 310q0 175 -31 317 t-88.5 224.5t-130.5 82.5q-74 0 -132 -82t-89 -222t-31 -314z" />
<glyph unicode="1" d="M166 1167l467 207v-1298h221v-76h-618v76h219v1110l-260 -111z" />
<glyph unicode="2" d="M94 0v72l312 364q47 56 102 140t86 151q61 129 61 293q0 107 -45.5 170t-120.5 63q-177 0 -317 -159l-70 61q107 115 203 161t217 46q150 0 244 -87.5t94 -227.5q0 -163 -62.5 -290.5t-187.5 -273.5l-307 -358h516v121h92v-246h-94h-723z" />
<glyph unicode="3" d="M125 57l51 101q90 -53 140 -71.5t102 -18.5q110 0 189 93t79 206q0 280 -248 280h-90v70q143 82 203 162t63 172q3 95 -36 150.5t-119 55.5q-55 0 -101 -23.5t-120 -88.5l-68 59q91 86 166 122t164 36q150 0 230.5 -83.5t80.5 -211.5q0 -90 -55 -161.5t-183 -135.5 q140 -10 226 -114.5t86 -256.5q0 -115 -67.5 -214t-179.5 -155.5t-239 -56.5q-69 0 -126.5 17.5t-147.5 66.5z" />
<glyph unicode="4" d="M33 387v53l655 922h51v-856h254v-119h-254v-387h-153v387h-553zM203 506h383v543z" />
<glyph unicode="5" d="M102 59l52 101q23 -18 46 -32t41 -23t38 -15.5t32.5 -9.5t30.5 -4.5t25 -2t23.5 0t19.5 0.5q41 0 84.5 22t82 61.5t63 105.5t24.5 145q0 119 -60 200t-158 117q-57 19 -107 26t-146 7v596h532v55h94v-192h-518v-357q282 0 425.5 -106t143.5 -310q0 -81 -28 -156 t-74.5 -130.5t-105.5 -97t-123 -62.5t-125 -21h-7q-175 -1 -305 82z" />
<glyph unicode="6" d="M92 545q0 227 85 415t241 299t352 111h43l-2 -84q-154 -11 -266 -93t-172 -189q-78 -140 -78 -435q0 -145 28 -260t86 -185.5t138 -70.5q69 0 118.5 49.5t71 123t21.5 161.5q0 135 -60.5 220t-171.5 85h-106l16 80q117 25 168 25q148 0 248 -110.5t100 -262.5 q0 -200 -116 -325.5t-306 -125.5q-196 0 -317 156.5t-121 415.5z" />
<glyph unicode="7" d="M115 1083v326h92v-57h745v-52l-272 -661q-87 -212 -211.5 -441.5t-183.5 -291.5l-115 88q83 90 209 301t205 405l200 506h-577v-123h-92z" />
<glyph unicode="8" d="M70 283q0 158 184 299l119 90l-137 98q-130 93 -130 268q0 124 124 228.5t282 103.5q155 -1 266 -90.5t111 -212.5q0 -84 -42 -141.5t-138 -128.5l-88 -66l174 -113q94 -60 127.5 -130.5t33.5 -153.5q0 -90 -59 -172t-166.5 -134.5t-236.5 -52.5q-52 0 -108.5 11 t-113.5 35.5t-101.5 59t-72.5 87.5t-28 115zM240 299q0 -96 69.5 -171t190.5 -75q127 0 200.5 71t73.5 171q0 62 -27 100.5t-94 83.5l-196 135l-127 -114q-49 -43 -69.5 -87t-20.5 -114zM297 1065q0 -106 113 -188l125 -91l102 82q93 75 90 203q-2 84 -62 152.5t-153 68.5 q-92 0 -153.5 -68.5t-61.5 -158.5z" />
<glyph unicode="9" d="M80 913q0 200 116 325.5t306 125.5q196 0 317 -156t121 -415q0 -227 -85 -415t-241 -299.5t-352 -111.5h-43l2 84q80 6 152.5 33.5t126.5 69.5t92.5 86.5t66.5 93.5q78 140 78 434q0 145 -28 260t-86 185.5t-138 70.5q-69 0 -118.5 -49.5t-71 -123t-21.5 -161.5 q0 -135 60.5 -220t171.5 -85h106l-16 -80q-112 -24 -168 -24q-148 0 -248 110t-100 262z" />
<glyph unicode=":" horiz-adv-x="512" d="M139 94q0 49 34 84t81 35q49 0 84 -34t35 -81q2 -50 -33 -85.5t-86 -35.5q-47 0 -81 35t-34 82zM139 836q0 49 33.5 82.5t81.5 33.5q49 0 84 -33.5t35 -80.5q1 -50 -33.5 -84.5t-85.5 -34.5q-48 0 -81.5 34t-33.5 83z" />
<glyph unicode=";" horiz-adv-x="512" d="M104 -207q74 59 103 100t29 87t-23.5 71.5t-81.5 44.5q25 68 53 92.5t80 24.5q47 0 82 -33.5t35 -79.5q0 -86 -58.5 -181.5t-166.5 -188.5zM145 836q0 49 33.5 82.5t83.5 33.5q48 0 83.5 -33.5t35.5 -80.5q1 -49 -34 -84t-85 -35t-83.5 33.5t-33.5 83.5z" />
<glyph unicode="?" horiz-adv-x="813" d="M215 866l64 174q88 -25 131 -44.5t90 -55.5q64 -49 98.5 -123t34.5 -162q0 -109 -50.5 -168t-142.5 -59h-47l-18 -115h-49v234h188q29 62 29 102q0 81 -70.5 127.5t-257.5 89.5zM246 94q0 50 33.5 84.5t82.5 34.5q48 0 83.5 -34t35.5 -81q1 -49 -34 -85t-85 -36 q-49 0 -82.5 34.5t-33.5 82.5z" />
<glyph unicode="@" horiz-adv-x="2048" d="M203 446q0 187 64 347.5t177 274t274 177.5t349 64q185 0 325 -56.5t255 -177.5q106 -113 154 -237t48 -289q0 -172 -43.5 -278.5t-146.5 -188.5q-130 -100 -311 -100q-114 0 -167 47t-53 149q0 47 15 113l22 88q-70 -113 -122 -175t-123 -118q-52 -39 -110 -64.5 t-97 -25.5q-54 0 -88.5 85t-34.5 216q0 191 64.5 348t176.5 246.5t248 89.5q53 0 85.5 -9.5t84.5 -41.5l62 51h80l-117 -727q-8 -49 -8 -86q0 -40 33 -63t90 -23q89 0 175.5 50.5t127.5 127.5q61 110 61 297q0 136 -39.5 238t-130.5 202q-102 115 -220 164t-286 49 q-352 0 -563 -203.5t-211 -543.5q0 -194 59 -326t191 -237q99 -77 199 -108.5t249 -31.5q108 0 178.5 15t157.5 57l41 -90q-96 -44 -177 -62t-189 -18q-172 0 -292.5 40t-238.5 136q-144 116 -211 264t-67 344zM752 342q0 -172 82 -172q41 0 103.5 56.5t127.5 152.5 q64 93 99.5 187t60.5 235q-41 53 -76.5 74.5t-79.5 21.5q-81 0 -155 -78t-118 -206.5t-44 -270.5z" />
<glyph unicode="A" horiz-adv-x="1376" d="M16 0v78h107l532 1317h74l512 -1317h117v-78h-467v76h164l-144 368l-524 2l-149 -368h170v-78h-392zM426 543h451l-220 575z" />
<glyph unicode="B" horiz-adv-x="1300" d="M137 0v76h154v1200h-154v76h623q140 0 239 -98.5t99 -237.5q0 -115 -88 -203.5t-213 -99.5q63 -8 95.5 -16t70.5 -27q95 -44 147.5 -128.5t52.5 -189.5q0 -151 -103.5 -251.5t-260.5 -100.5h-662zM471 92h229q129 0 203 72t74 198q0 127 -78.5 210t-198.5 83h-229v-563z M471 748h209q100 0 163.5 73t63.5 187q0 107 -59 178t-150 71h-227v-509z" />
<glyph unicode="C" horiz-adv-x="1366" d="M102 674q0 146 54.5 276t148.5 223.5t224 148t276 54.5q106 0 189.5 -17.5t170.5 -58.5v93h97v-349h-97v101q-95 70 -173 98.5t-175 28.5q-223 0 -367.5 -163t-144.5 -415q0 -388 309 -551q120 -63 236 -63q75 0 145.5 23t169.5 79v150h99v-273q-128 -47 -225.5 -66.5 t-209.5 -19.5q-207 0 -373.5 90t-260 250.5t-93.5 360.5z" />
<glyph unicode="D" horiz-adv-x="1515" d="M137 0v76h154v1200h-154v76h604q137 0 261 -53.5t213.5 -144t142.5 -216t53 -262.5q0 -138 -53 -263.5t-143 -215.5t-214.5 -143.5t-261.5 -53.5h-602zM471 102h246q134 0 247 76.5t178.5 208t65.5 285.5q0 155 -65.5 287.5t-177.5 210t-244 77.5h-250v-1145z" />
<glyph unicode="E" horiz-adv-x="1189" d="M137 0v76h154v1200h-154v76h817v57h95v-326h-93v174h-485v-524h387v154l94 2v-404l-94 -2v158h-387v-549h504v180h94v-272h-932z" />
<glyph unicode="F" horiz-adv-x="1169" d="M137 0v76h154v1200h-154v76h817v57h95v-326h-93v174h-485v-524h387v154l94 2v-404l-94 -2v158h-387v-565h154v-76h-488z" />
<glyph unicode="G" horiz-adv-x="1525" d="M102 680q0 198 94 357t261 249t374 90q92 0 168 -14t170 -49v80h95v-349h-95v134q-168 92 -354 92q-136 0 -253.5 -79.5t-187 -216t-69.5 -294.5q0 -167 78.5 -305.5t215 -217.5t302.5 -79q79 0 186 28v359h-174v76h508v-76h-153v-414q-135 -43 -228.5 -60.5 t-193.5 -17.5q-213 0 -383 90.5t-265.5 252.5t-95.5 364z" />
<glyph unicode="H" horiz-adv-x="1710" d="M137 0v76h154v1200h-154v76h488v-76h-154v-545h768v545h-154v76h488v-76h-156v-1200h156v-76h-488v76h154v563h-768v-563h154v-76h-488z" />
<glyph unicode="I" horiz-adv-x="761" d="M137 0v76h154v1200h-154v76h488v-76h-154v-1200h154v-76h-488z" />
<glyph unicode="J" horiz-adv-x="745" d="M78 -408q72 71 103 120t57 136q23 78 29.5 142.5t6.5 202.5v1083h-153v76h487v-76h-155v-1313q-82 -165 -134.5 -240.5t-171.5 -195.5z" />
<glyph unicode="K" horiz-adv-x="1337" d="M137 0v78h154v1196l-154 2v76h488v-76h-154v-1200h154v-76h-488zM489 682l504 594h-151v76h424v-76h-133l-453 -541l555 -659h108v-76h-276z" />
<glyph unicode="L" horiz-adv-x="1087" d="M137 0v76h154v1200h-154v76h488v-76h-154v-1184h504v180h94v-272h-932z" />
<glyph unicode="M" horiz-adv-x="1845" d="M111 0v76h155v1200h-155v76h329l467 -1045l482 1045h319v-76h-154v-1200h154v-76h-487v76h153v1007l-502 -1103l-503 1126v-1030h155v-76h-413z" />
<glyph unicode="N" horiz-adv-x="1509" d="M102 1276v76h297l750 -1028v952h-156v76h412v-76h-154v-1299h-63l-787 1082v-983h156v-76h-414v76h156v1122l-55 78h-142z" />
<glyph unicode="O" horiz-adv-x="1521" d="M102 674q0 189 89.5 351t242 256.5t330.5 94.5q175 0 326 -95t240 -256.5t89 -348.5t-89 -349.5t-240 -258t-326 -95.5q-132 0 -254.5 56.5t-212 151t-142.5 224t-53 269.5zM305 676q0 -171 59 -307t164 -212.5t236 -76.5q196 0 324.5 169t128.5 427t-128 426t-323 168 q-201 0 -331 -166.5t-130 -427.5z" />
<glyph unicode="P" horiz-adv-x="1228" d="M137 0v76h154v1200h-154v76h586q178 0 289.5 -108.5t111.5 -280.5t-129 -290t-319 -118q-51 0 -115 12v72q27 -6 55 -6q132 0 227 97t95 233q0 123 -71.5 208.5t-172.5 85.5h-223v-1181h174l-2 -76h-506z" />
<glyph unicode="Q" horiz-adv-x="1554" d="M102 674q0 189 90 351t242.5 256.5t329.5 94.5q175 0 326 -95t240 -256.5t89 -348.5q0 -186 -92 -353.5t-246 -259.5q-62 -39 -176 -71q106 -126 207 -204.5t158 -78.5q23 0 50.5 15t84.5 57l47 -57l-219 -197v2q-111 57 -166.5 90.5t-112.5 79.5q-63 51 -114.5 108 t-139.5 173q-136 19 -233 69t-182 146q-85 95 -134 223.5t-49 255.5zM305 676q0 -171 59 -307t164 -212.5t236 -76.5q196 0 324.5 169t128.5 427t-128 426t-323 168q-201 0 -331 -166.5t-130 -427.5z" />
<glyph unicode="R" horiz-adv-x="1339" d="M137 0v76h154v1200h-154v76h570q149 0 237.5 -44t134.5 -139q41 -84 41 -182q0 -149 -79.5 -240.5t-227.5 -113.5l295 -455q37 -57 66 -78.5t67 -21.5h80v-78h-174q-91 0 -125.5 19.5t-85.5 101.5l-305 485h-160v-530h154v-76h-488zM471 700h197q117 0 190.5 78.5 t73.5 204.5q0 132 -69.5 203t-198.5 71h-193v-557z" />
<glyph unicode="S" horiz-adv-x="1150" d="M172 1022q0 152 115 253t288 101q148 0 244 -57v74h94v-351h-94v146q-78 53 -127 71.5t-110 18.5q-104 0 -167 -58t-63 -153q0 -78 62 -139.5t254 -171.5t260.5 -195t68.5 -211q0 -160 -117 -268.5t-290 -108.5q-95 0 -166.5 21.5t-149.5 71.5v-84h-96v368h96v-162 q93 -62 148 -83t123 -21q123 0 198.5 59t75.5 156q0 88 -68 159.5t-233 157.5q-194 101 -270 190.5t-76 215.5z" />
<glyph unicode="T" horiz-adv-x="1228" d="M16 1085v324h99v-57h999v57h98v-324h-98v164h-409v-1173h204v-76h-590v76h205v1173h-409v-164h-99z" />
<glyph unicode="U" horiz-adv-x="1597" d="M137 1276v76h488v-76h-154v-774q0 -186 101.5 -298t271.5 -112q175 0 283 114t108 298v772h-154v76h412v-76h-154v-780q0 -164 -60 -274t-187 -179q-134 -70 -285 -70q-223 0 -369.5 132t-146.5 333v838h-154z" />
<glyph unicode="V" horiz-adv-x="1353" d="M16 1276v76h508v-76h-192l397 -1006l393 1006h-135v76h350v-76h-102l-512 -1311h-70l-516 1311h-121z" />
<glyph unicode="W" horiz-adv-x="1929" d="M16 1276v76h430v-76h-120l401 -1010l195 496l-207 514h-115v76h735v-76h-106l-156 -402l238 -606l395 1008h-141v76h348v-76h-98l-512 -1311h-64l-264 658l-254 -658h-68l-518 1311h-119zM915 1276l105 -254l104 254h-209z" />
<glyph unicode="X" horiz-adv-x="1351" d="M16 0v76h115l457 588l-432 612h-117v76h520v-76h-192l329 -469l363 469h-189v76h447v-76h-121l-434 -563l450 -637h123v-76h-526v76h192l-350 495l-383 -495h195v-76h-447z" />
<glyph unicode="Y" horiz-adv-x="1253" d="M16 1276v76h506v-76h-186l352 -537l326 537h-187v76h410v-76h-107l-393 -641v-559h156v-76h-487v76h153v547l-424 653h-119z" />
<glyph unicode="Z" horiz-adv-x="1368" d="M121 0v61l840 1186h-744v-164h-96v326h96v-57h989v-64l-835 -1186h780v213h96v-315h-1126z" />
<glyph unicode="[" horiz-adv-x="471" d="M141 -498v1850h312v-95h-191v-1663h191v-92h-312z" />
<glyph unicode="\" horiz-adv-x="634" d="M0 1352h121l514 -1850h-121z" />
<glyph unicode="]" horiz-adv-x="432" d="M16 -406h193v1663h-193v95h314v-1850h-314v92z" />
<glyph unicode="^" horiz-adv-x="692" d="M80 1083l229 338h88l221 -338h-90l-174 181l-176 -181h-98z" />
<glyph unicode="_" d="M0 0h1024v-117h-1024v117z" />
<glyph unicode="`" horiz-adv-x="528" d="M43 1413h190l244 -330h-108z" />
<glyph unicode="a" horiz-adv-x="995" d="M4 0v76h78l393 901h53l377 -901h86v-76h-344v76h90l-92 223h-373l-98 -223h117v-76h-287zM307 379h305l-149 360z" />
<glyph unicode="b" horiz-adv-x="1075" d="M137 0v76h154v794h-154v76h500q130 0 207.5 -64t77.5 -171q0 -92 -72.5 -151.5t-185.5 -59.5q148 -4 228.5 -70t80.5 -182q0 -118 -80.5 -183t-226.5 -65h-529zM446 82h146q205 0 205 176q0 193 -203 193h-148v-369zM446 532h132q76 0 121.5 47.5t45.5 125.5 q0 77 -39 118t-114 41h-146v-332z" />
<glyph unicode="c" horiz-adv-x="1046" d="M102 471q0 221 152 361.5t391 140.5q66 0 117.5 -13.5t124.5 -48.5v64h74v-244h-74v70q-66 47 -121.5 66.5t-124.5 19.5q-156 0 -259 -114t-103 -286q0 -183 112 -305.5t279 -122.5q52 0 97 14.5t118 53.5l2 104h74v-190q-86 -37 -158 -52.5t-168 -15.5 q-232 0 -382.5 140.5t-150.5 357.5z" />
<glyph unicode="d" horiz-adv-x="1220" d="M137 0v76h154v794h-154v76h486q209 0 352 -137.5t143 -335.5q0 -203 -141.5 -338t-353.5 -135h-486zM446 82h160q143 0 239.5 111.5t96.5 277.5t-96.5 279.5t-237.5 113.5h-162v-782z" />
<glyph unicode="e" horiz-adv-x="991" d="M137 0v76h154v794h-154v76h643v41h76v-229h-74v106h-336v-342h263v99l75 2v-285h-75v102h-263v-358h349v108h75v-190h-733z" />
<glyph unicode="f" horiz-adv-x="958" d="M137 0v76h154v794h-154v76h643v41h76v-229h-74v106h-336v-342h263v99l75 2v-285h-75v102h-263v-364h154v-76h-463z" />
<glyph unicode="g" horiz-adv-x="1206" d="M102 471q0 213 152 356.5t377 143.5q60 0 115 -11t143 -40v55h76v-244h-76v94q-129 66 -236 66q-161 0 -267.5 -115t-106.5 -287q0 -191 116 -312.5t299 -121.5q48 0 135 21v237h-155v76h465v-76h-156v-272q-109 -38 -184.5 -53t-163.5 -15q-232 0 -382.5 140.5 t-150.5 357.5z" />
<glyph unicode="h" horiz-adv-x="1454" d="M137 0v76h154v794h-154v76h463v-76h-154v-350h560v350h-152v76h463v-76h-154v-794h154v-76h-463v76h152v362h-560v-362h154v-76h-463z" />
<glyph unicode="i" horiz-adv-x="737" d="M137 0v76h154v788h-154v82h463v-82h-154v-788h154v-76h-463z" />
<glyph unicode="j" horiz-adv-x="669" d="M102 864v82h465v-82h-155v-889q-69 -133 -111.5 -189.5t-138.5 -143.5l-51 53q94 104 120.5 183.5t26.5 256.5v729h-156z" />
<glyph unicode="k" horiz-adv-x="1144" d="M137 0v76h154v788h-154v82h463v-82h-154v-788h154v-76h-463zM461 477l346 387h-88v82h348v-82h-127l-311 -348l391 -440h104v-76h-237z" />
<glyph unicode="l" horiz-adv-x="884" d="M137 0v76h154v788h-154v82h463v-82h-154v-782h345v125h73v-207h-727z" />
<glyph unicode="m" horiz-adv-x="1546" d="M129 0v76h154v788h-154v82h307l324 -692l330 692h319v-82h-154v-788h154v-76h-463v76h154v684l-371 -774l-342 733v-643h154v-76h-412z" />
<glyph unicode="n" horiz-adv-x="1337" d="M129 864v82h264l576 -667v585h-156v82h412v-82h-154v-880h-61l-594 696v-604h155v-76h-411v76h153v735l-41 53h-143z" />
<glyph unicode="o" horiz-adv-x="1175" d="M102 475q0 131 67 245.5t179.5 182.5t241.5 68q127 0 238.5 -68.5t178 -183t66.5 -244.5q0 -132 -66.5 -248t-178 -185t-238.5 -69q-129 0 -241.5 68.5t-179.5 184.5t-67 249zM279 475q0 -173 90 -294.5t219 -121.5q130 0 220.5 120.5t90.5 293.5q0 172 -91 292t-220 120 t-219 -120t-90 -290z" />
<glyph unicode="p" horiz-adv-x="1005" d="M137 0v76h154v788h-154v82h496q137 0 217 -74.5t80 -201.5q0 -129 -93.5 -213t-236.5 -84q-34 0 -86 8v65q36 -4 41 -4q88 0 145.5 61.5t57.5 155.5q0 98 -50.5 151.5t-142.5 53.5h-119v-788h154v-76h-463z" />
<glyph unicode="q" horiz-adv-x="1175" d="M102 473q0 132 66.5 247t179 183t242.5 68q128 0 239.5 -68.5t177.5 -183.5t66 -246q0 -109 -49.5 -212.5t-133.5 -175.5t-181 -91q72 -83 145 -138t111 -55q34 0 98 56l51 -70l-190 -135q-83 42 -126 68.5t-96 70.5q-51 40 -86 76.5t-94 109.5q-108 25 -165 56.5 t-121 103.5q-64 71 -99 158.5t-35 177.5zM279 475q0 -173 90 -294.5t219 -121.5q130 0 220.5 120.5t90.5 293.5q0 172 -91 292t-220 120t-219 -120t-90 -290z" />
<glyph unicode="r" horiz-adv-x="1095" d="M137 0v76h154v788h-154v82h484q149 0 227 -65t78 -189q0 -103 -59 -173t-160 -89l190 -278q52 -76 119 -76h57v-76h-149q-68 0 -94 14t-64 72l-219 330h-101v-340h154v-76h-463zM446 498h146q73 0 117.5 51.5t44.5 136.5q0 86 -42.5 132t-121.5 46h-144v-366z" />
<glyph unicode="s" horiz-adv-x="831" d="M127 707q0 110 85 187t208 77q102 0 186 -47v51h76v-246h-76v102q-59 32 -94.5 43t-77.5 11q-72 0 -116 -37t-44 -100q0 -39 20 -65.5t73 -57.5q30 -18 80 -47t65 -37q132 -73 178.5 -135t46.5 -162q0 -116 -85 -193.5t-212 -77.5q-110 0 -231 68v-53h-76v256h76v-107 q112 -67 209 -67q77 0 126.5 38.5t49.5 98.5q0 58 -48.5 105t-176.5 112q-135 68 -188.5 130t-53.5 153z" />
<glyph unicode="t" horiz-adv-x="909" d="M4 750v237h74v-41h753v41h76v-237h-76v114h-299v-788h175v-76h-504v76h174v788h-299v-114h-74z" />
<glyph unicode="u" horiz-adv-x="1269" d="M102 864v82h465v-82h-155v-514q0 -126 69 -204t181 -78q116 0 190 80t74 204v512h-154v82h412v-82h-154v-518q0 -166 -109 -269.5t-284 -103.5q-164 0 -271.5 94.5t-107.5 239.5v557h-156z" />
<glyph unicode="v" horiz-adv-x="978" d="M4 864v82h397v-82h-129l265 -633l258 633h-117v82h297v-82h-86l-367 -889h-49l-369 889h-100z" />
<glyph unicode="w" horiz-adv-x="1402" d="M4 864v82h342v-82h-76l269 -649l125 305l-144 344h-69v82h528v-82h-80l-113 -272l164 -391l273 663h-99v82h277v-82h-84l-367 -889h-59l-180 433l-179 -433h-61l-369 889h-98zM676 864l63 -155l68 155h-131z" />
<glyph unicode="x" horiz-adv-x="1030" d="M20 0v76h103l321 383l-299 405h-108v82h401v-82h-121l220 -297l247 297h-116v82h329v-82h-110l-303 -360l315 -428h111v-76h-406v76h125l-237 319l-267 -319h125v-76h-330z" />
<glyph unicode="y" horiz-adv-x="927" d="M4 864v82h371v-82h-92l237 -346l215 346h-112v82h303v-82h-99l-270 -438v-350h156v-76h-465v76h155v360l-292 428h-107z" />
<glyph unicode="z" horiz-adv-x="985" d="M78 0v43l586 821h-512v-106h-74v229h74v-41h727v-45l-590 -819h545v139h73v-221h-829z" />
<glyph unicode="{" horiz-adv-x="837" d="M106 483v58h78q74 0 115 62t41 177v471q0 273 268 273h117v-68h-82q-72 0 -109.5 -51t-37.5 -148v-483q0 -136 -41.5 -192t-151.5 -70q111 -15 152 -70.5t41 -191.5v-494q0 -97 37.5 -147.5t109.5 -50.5h82v-82h-117q-268 0 -268 274v494q0 115 -41 177t-115 62h-78z" />
<glyph unicode="|" horiz-adv-x="512" d="M197 -524v2048h118v-2048h-118z" />
<glyph unicode="}" horiz-adv-x="837" d="M115 -442h80q72 0 110.5 51t38.5 147v494q0 136 40.5 191.5t150.5 70.5q-110 13 -150.5 69t-40.5 193v483q0 97 -38.5 148t-110.5 51h-80v68h116q267 0 267 -273v-471q0 -115 41 -177t116 -62h76v-58h-76q-75 0 -116 -62t-41 -177v-494q0 -274 -267 -274h-116v82z" />
<glyph unicode="~" horiz-adv-x="929" d="M66 1128q66 85 123.5 121.5t125.5 36.5q67 0 97 -20l77 -47q58 -37 125 -37q51 0 76.5 13t77.5 65l49 -33q-73 -91 -127.5 -122.5t-136.5 -31.5q-92 0 -162 49q-53 34 -71 41.5t-48 7.5q-42 0 -77.5 -17.5t-77.5 -59.5z" />
<glyph unicode="&#xa1;" horiz-adv-x="1021" d="M186 1008l447 194v-1126h201v-76h-578v76h199v960l-240 -112z" />
<glyph unicode="&#xa2;" d="M53 313v37l656 826h51v-744h174v-119h-174v-313h-154v313h-553zM248 432h358v453z" />
<glyph unicode="&#xa3;" d="M104 57l52 101q90 -53 139.5 -71.5t101.5 -18.5q114 0 191.5 74.5t77.5 183.5q0 104 -67 165.5t-181 61.5h-90v70q149 86 207.5 154.5t58.5 154.5q0 75 -43 120.5t-113 45.5q-55 0 -100.5 -24t-120.5 -89l-67 59q91 86 165.5 122t163.5 36q134 0 212.5 -68.5t78.5 -185.5 q0 -90 -42 -143t-175 -129q141 -10 216 -88t75 -213q0 -167 -136 -284.5t-329 -117.5q-70 0 -127.5 17.5t-147.5 66.5z" />
<glyph unicode="&#xa5;" horiz-adv-x="1259" d="M16 1352h510v-76h-186l350 -535l330 535h-186v76h409v-76h-104l-359 -571h299v-80h-338v-193h338v-86h-338v-270h156v-76h-487v76h153v270h-338v86h338v193h-338v80h287l-373 571h-121z" />
<glyph unicode="&#xa7;" d="M117 524q0 198 77.5 352.5t218 240t320.5 85.5h43l-2 -84q-170 -12 -251.5 -51t-135.5 -135q-88 -157 -88 -383q0 -140 33 -254t90.5 -178t128.5 -64q85 0 148 91.5t63 217.5q0 256 -232 256h-106l16 80q117 25 168 25q151 0 239.5 -87.5t88.5 -236.5q0 -180 -116 -303 t-285 -123q-116 0 -212 72.5t-151 199t-55 279.5z" />
<glyph unicode="&#xa8;" horiz-adv-x="831" d="M133 1171q0 43 31 74t72 31q43 0 73.5 -31t30.5 -74q0 -41 -30.5 -71.5t-73.5 -30.5q-41 0 -72 30.5t-31 71.5zM492 1171q0 43 30.5 74t71.5 31q43 0 73.5 -31t30.5 -74q0 -41 -30.5 -71.5t-73.5 -30.5q-41 0 -71.5 30.5t-30.5 71.5z" />
<glyph unicode="&#xa9;" horiz-adv-x="2048" d="M184 498q0 171 66.5 326t178.5 267.5t268 179t327 66.5t327 -66.5t268 -179t178.5 -267.5t66.5 -326t-66.5 -327t-178.5 -269t-268 -179.5t-327 -66.5t-327 66.5t-268 179.5t-178.5 269t-66.5 327zM315 498q0 -145 56 -276.5t151 -226.5t226.5 -151.5t275.5 -56.5 t275.5 56.5t226.5 151.5t151 226.5t56 276.5q0 144 -56 275t-151 226t-226.5 151t-275.5 56t-275.5 -56t-226.5 -151t-151 -226t-56 -275zM535 487q0 98 42 191.5t111.5 162.5t164 110.5t194.5 41.5q114 0 219 -55v57h100v-295h-102v142q-68 37 -108 50t-89 13 q-149 0 -248.5 -118t-99.5 -295q0 -186 105 -306t266 -120q46 0 84 13.5t94 51.5v145h102v-219q-113 -50 -177 -67t-138 -17q-227 0 -373.5 145t-146.5 369z" />
<glyph unicode="&#xaa;" d="M84 778q0 178 116 301t285 123q116 0 212 -72.5t151 -198.5t55 -278q0 -199 -77 -354t-217.5 -240.5t-321.5 -85.5h-43l2 84q171 12 252 51t135 136q88 157 88 383q0 213 -72 354t-180 141q-86 0 -148.5 -91.5t-62.5 -217.5q0 -141 63 -215t183 -74h88l-17 -80 q-99 -24 -151 -24q-154 0 -247 97.5t-93 260.5z" />
<glyph unicode="&#xab;" horiz-adv-x="1007" d="M51 459l475 393v-84l-241 -309l241 -309v-87zM463 459l475 393v-84l-244 -309l244 -309v-87z" />
<glyph unicode="&#xad;" horiz-adv-x="563" d="M86 389v156h391v-156h-391z" />
<glyph unicode="&#xae;" horiz-adv-x="2048" d="M184 469q0 171 66.5 327t178.5 269t268 179.5t327 66.5t327 -66.5t268 -179.5t178.5 -269t66.5 -327q0 -114 -30 -223t-84 -201t-131.5 -169.5t-169.5 -132t-201.5 -84.5t-223.5 -30t-223.5 30t-201.5 84.5t-169.5 132t-131.5 169.5t-84 201t-30 223zM315 469 q0 -115 36 -223.5t101.5 -195.5t152.5 -152.5t195.5 -101.5t223.5 -36t223.5 36t195.5 101.5t152.5 152.5t101.5 195.5t36 223.5q0 145 -56 276.5t-151 226.5t-226.5 151.5t-275.5 56.5t-275.5 -56.5t-226.5 -151.5t-151 -226.5t-56 -276.5zM608 0v76h144v803h-144v75h406 q173 0 262.5 -64.5t89.5 -189.5q0 -197 -223 -258l190 -325q23 -41 68 -41h67v-76h-237l-240 422h-96v-346h141v-76h-428zM895 506h125q86 0 138 49t52 131q0 184 -213 184h-102v-364z" />
<glyph unicode="&#xb0;" horiz-adv-x="681" d="M88 1120q0 103 72.5 176.5t175.5 73.5q104 0 177 -73.5t73 -176.5t-73 -175.5t-177 -72.5q-103 0 -175.5 72.5t-72.5 175.5zM190 1120q0 -60 43 -102.5t103 -42.5q61 0 104 42.5t43 102.5q0 62 -43 105t-104 43q-60 0 -103 -43.5t-43 -104.5z" />
<glyph unicode="&#xb4;" horiz-adv-x="681" d="M141 1083l244 330h190l-323 -330h-111z" />
<glyph unicode="&#xb5;" horiz-adv-x="1269" d="M131 463l981 516v-1030zM227 463l836 -436v876z" />
<glyph unicode="&#xb6;" d="M176 1020v156h776v-52l-309 -587q-113 -213 -168.5 -308.5t-159.5 -255.5l-114 88q97 127 145 197t119 188q28 46 94 164l227 410h-610z" />
<glyph unicode="&#xb7;" horiz-adv-x="970" d="M365 492q0 50 34.5 85t85.5 35q50 0 85.5 -35.5t35.5 -84.5q0 -51 -35.5 -86t-85.5 -35q-51 0 -85.5 35t-34.5 86z" />
<glyph unicode="&#xba;" d="M72 590q0 162 61.5 303.5t166 225t224.5 83.5q118 0 222.5 -84t166.5 -225t62 -301q0 -163 -62 -306t-166 -228t-223 -85q-120 0 -224.5 85t-166 227.5t-61.5 304.5zM252 594q0 -147 36 -271.5t98 -197t136 -72.5q75 0 137.5 71.5t99 194.5t36.5 269q0 145 -36.5 268 t-99.5 194.5t-137 71.5q-110 0 -190 -156t-80 -372z" />
<glyph unicode="&#xbb;" d="M78 63v87l244 309l-244 309v84l475 -393zM487 63v87l244 309l-244 309v84l478 -393z" />
<glyph unicode="&#xbf;" horiz-adv-x="813" d="M186 297q0 107 50 167t141 60h47l18 115h52v-233h-189q-31 -63 -31 -105q0 -80 71.5 -127t258.5 -90l-63 -172q-90 23 -133.5 42t-90.5 56q-131 106 -131 287zM338 854q-2 50 33 84.5t86 34.5q47 0 80.5 -34t33.5 -83t-33.5 -83t-80.5 -34q-49 0 -84 34t-35 81z" />
<glyph unicode="&#xc0;" horiz-adv-x="1376" d="M16 0v78h107l532 1317h74l512 -1317h117v-78h-467v76h164l-144 368l-524 2l-149 -368h170v-78h-392zM410 1696h219l233 -236h-112zM426 543h451l-220 575z" />
<glyph unicode="&#xc1;" horiz-adv-x="1376" d="M16 0v78h107l532 1317h74l512 -1317h117v-78h-467v76h164l-144 368l-524 2l-149 -368h170v-78h-392zM426 543h451l-220 575zM506 1470l235 236h220l-340 -236h-115z" />
<glyph unicode="&#xc2;" horiz-adv-x="1376" d="M16 0v78h107l532 1317h74l512 -1317h117v-78h-467v76h164l-144 368l-524 2l-149 -368h170v-78h-392zM422 1436l229 229h90l220 -229h-91l-174 120l-176 -120h-98zM426 543h451l-220 575z" />
<glyph unicode="&#xc3;" horiz-adv-x="1376" d="M16 0v78h107l532 1317h74l512 -1317h117v-78h-467v76h164l-144 368l-524 2l-149 -368h170v-78h-392zM279 1526q124 121 276 121q70 0 113 -17l92 -41q68 -30 147 -30q58 0 88 11t90 54l48 -37q-67 -66 -136 -93.5t-166 -27.5q-103 0 -186 41q-64 30 -84.5 36.5t-56.5 6.5 q-49 0 -90 -15t-92 -52zM426 543h451l-220 575z" />
<glyph unicode="&#xc4;" horiz-adv-x="1376" d="M16 0v78h107l532 1317h74l512 -1317h117v-78h-467v76h164l-144 368l-524 2l-149 -368h170v-78h-392zM422 1542q0 43 30.5 74t73.5 31q41 0 72 -31t31 -74q0 -41 -31 -71.5t-72 -30.5q-43 0 -73.5 30.5t-30.5 71.5zM426 543h451l-220 575zM762 1542q0 43 30.5 74t73.5 31 q41 0 72 -31t31 -74q0 -41 -31 -71.5t-72 -30.5q-43 0 -73.5 30.5t-30.5 71.5z" />
<glyph unicode="&#xc5;" horiz-adv-x="1376" d="M16 0v78h107l532 1317h74l512 -1317h117v-78h-467v76h164l-144 368l-524 2l-149 -368h170v-78h-392zM426 543h451l-220 575zM526 1618q0 68 48 116t116 48t116 -48t48 -116q0 -67 -48 -114.5t-116 -47.5t-116 47.5t-48 114.5zM596 1618q0 -38 28 -66t66 -28 q39 0 66.5 27.5t27.5 66.5q0 40 -27 68t-67 28q-38 0 -66 -28t-28 -68z" />
<glyph unicode="&#xc6;" horiz-adv-x="1775" d="M16 0v76h93l647 1200h-131v76h915v47h96v-322h-96v172h-489v-522h393v156h94v-400h-94v152h-393v-541h508v176h96v-270h-936v76h153v368h-434l-196 -368h164v-76h-390zM485 539h387v729z" />
<glyph unicode="&#xc7;" horiz-adv-x="1314" d="M98 674q0 199 92 359.5t255.5 251.5t365.5 91q112 0 190 -19t164 -69v90h95v-344h-97v99q-98 81 -169 110t-173 29q-233 0 -376.5 -162.5t-143.5 -423.5q0 -138 44 -253.5t126 -192.5q77 -72 182.5 -116t202.5 -44q76 0 142 22.5t163 81.5v144h101v-271 q-134 -45 -229 -64.5t-193 -19.5l-64 -55q92 -37 124 -71.5t32 -96.5q0 -78 -71 -133t-173 -55q-45 0 -76 8q-4 1 -13 3t-24 6t-30 7q-3 1 -15.5 3.5t-21.5 4.5l55 111q70 -67 150 -67q37 0 60.5 25.5t23.5 64.5q0 55 -37 84.5t-129 48.5l129 116q-303 32 -482.5 220.5 t-179.5 476.5z" />
<glyph unicode="&#xc8;" horiz-adv-x="1189" d="M137 0v76h154v1200h-154v76h817v57h95v-326h-93v174h-485v-524h387v154l94 2v-404l-94 -2v158h-387v-549h504v180h94v-272h-932zM326 1704h219l233 -236h-112z" />
<glyph unicode="&#xc9;" horiz-adv-x="1189" d="M137 0v76h154v1200h-154v76h817v57h95v-326h-93v174h-485v-524h387v154l94 2v-404l-94 -2v158h-387v-549h504v180h94v-272h-932zM483 1452l236 236h219l-340 -236h-115z" />
<glyph unicode="&#xca;" horiz-adv-x="1189" d="M137 0v76h154v1200h-154v76h817v57h95v-326h-93v174h-485v-524h387v154l94 2v-404l-94 -2v158h-387v-549h504v180h94v-272h-932zM330 1481l229 229h90l219 -229h-88l-176 121l-174 -121h-100z" />
<glyph unicode="&#xcb;" horiz-adv-x="1189" d="M137 0v76h154v1200h-154v76h817v57h95v-326h-93v174h-485v-524h387v154l94 2v-404l-94 -2v158h-387v-549h504v180h94v-272h-932zM268 1569q0 43 31 73.5t74 30.5q41 0 71.5 -30.5t30.5 -73.5q0 -41 -30.5 -72t-71.5 -31q-43 0 -74 31t-31 72zM668 1569q0 43 30.5 73.5 t73.5 30.5q41 0 71.5 -30.5t30.5 -73.5q0 -41 -30.5 -72t-71.5 -31q-42 0 -73 31t-31 72z" />
<glyph unicode="&#xcc;" horiz-adv-x="761" d="M131 1698h197l174 -236h-90zM137 0v76h154v1200h-154v76h488v-76h-154v-1200h154v-76h-488z" />
<glyph unicode="&#xcd;" horiz-adv-x="761" d="M137 0v76h154v1200h-154v76h488v-76h-154v-1200h154v-76h-488zM283 1454l176 236h194l-280 -236h-90z" />
<glyph unicode="&#xce;" horiz-adv-x="761" d="M113 1436l231 229h88l219 -229h-88l-176 120l-174 -120h-100zM137 0v76h154v1200h-154v76h488v-76h-154v-1200h154v-76h-488z" />
<glyph unicode="&#xcf;" horiz-adv-x="761" d="M125 1552q0 43 30 74t72 31q43 0 73 -31t30 -74q0 -42 -30 -72t-73 -30q-42 0 -72 30t-30 72zM137 0v76h154v1200h-154v76h488v-76h-154v-1200h154v-76h-488zM436 1552q0 43 30 74t73 31q42 0 72 -31t30 -74q0 -42 -30 -72t-72 -30q-43 0 -73 30t-30 72z" />
<glyph unicode="&#xd1;" horiz-adv-x="1509" d="M102 1276v76h297l750 -1028v952h-156v76h412v-76h-154v-1299h-63l-787 1082v-983h156v-76h-414v76h156v1122l-55 78h-142zM313 1501q121 121 275 121q74 0 114 -16l91 -41q73 -31 149 -31q58 0 88 11t90 54l47 -36q-67 -66 -136 -93.5t-165 -27.5q-58 0 -98 9t-90 32 q-65 31 -84.5 37t-54.5 6q-49 0 -90.5 -15.5t-94.5 -52.5z" />
<glyph unicode="&#xd2;" horiz-adv-x="1521" d="M102 674q0 189 89.5 351t242 256.5t330.5 94.5q175 0 326 -95t240 -256.5t89 -348.5t-89 -349.5t-240 -258t-326 -95.5q-132 0 -254.5 56.5t-212 151t-142.5 224t-53 269.5zM305 676q0 -171 59 -307t164 -212.5t236 -76.5q196 0 324.5 169t128.5 427t-128 426t-323 168 q-201 0 -331 -166.5t-130 -427.5zM387 1683h236l286 -208h-129z" />
<glyph unicode="&#xd3;" horiz-adv-x="1521" d="M102 674q0 189 89.5 351t242 256.5t330.5 94.5q175 0 326 -95t240 -256.5t89 -348.5t-89 -349.5t-240 -258t-326 -95.5q-132 0 -254.5 56.5t-212 151t-142.5 224t-53 269.5zM305 676q0 -171 59 -307t164 -212.5t236 -76.5q196 0 324.5 169t128.5 427t-128 426t-323 168 q-201 0 -331 -166.5t-130 -427.5zM578 1475l286 208h236l-393 -208h-129z" />
<glyph unicode="&#xd4;" horiz-adv-x="1521" d="M102 674q0 189 89.5 351t242 256.5t330.5 94.5q175 0 326 -95t240 -256.5t89 -348.5t-89 -349.5t-240 -258t-326 -95.5q-132 0 -254.5 56.5t-212 151t-142.5 224t-53 269.5zM305 676q0 -171 59 -307t164 -212.5t236 -76.5q196 0 324.5 169t128.5 427t-128 426t-323 168 q-201 0 -331 -166.5t-130 -427.5zM489 1452l230 229h90l219 -229h-90l-174 121l-176 -121h-99z" />
<glyph unicode="&#xd5;" horiz-adv-x="1521" d="M102 674q0 189 89.5 351t242 256.5t330.5 94.5q175 0 326 -95t240 -256.5t89 -348.5t-89 -349.5t-240 -258t-326 -95.5q-132 0 -254.5 56.5t-212 151t-142.5 224t-53 269.5zM305 676q0 -171 59 -307t164 -212.5t236 -76.5q196 0 324.5 169t128.5 427t-128 426t-323 168 q-201 0 -331 -166.5t-130 -427.5zM322 1528q121 121 274 121q72 0 115 -17l90 -41q70 -30 149 -30q58 0 88 11t90 54l48 -37q-67 -66 -136.5 -93.5t-165.5 -27.5q-101 0 -188 41q-65 31 -84.5 37t-54.5 6q-49 0 -90 -15t-92 -52z" />
<glyph unicode="&#xd6;" horiz-adv-x="1521" d="M102 674q0 189 89.5 351t242 256.5t330.5 94.5q175 0 326 -95t240 -256.5t89 -348.5t-89 -349.5t-240 -258t-326 -95.5q-132 0 -254.5 56.5t-212 151t-142.5 224t-53 269.5zM305 676q0 -171 59 -307t164 -212.5t236 -76.5q196 0 324.5 169t128.5 427t-128 426t-323 168 q-201 0 -331 -166.5t-130 -427.5zM418 1546q0 43 30.5 74t71.5 31q43 0 74 -31t31 -74q0 -41 -31 -71.5t-74 -30.5q-41 0 -71.5 30.5t-30.5 71.5zM903 1546q0 43 31 74t74 31q41 0 71.5 -31t30.5 -74q0 -41 -30.5 -71.5t-71.5 -30.5q-43 0 -74 30.5t-31 71.5z" />
<glyph unicode="&#xd8;" horiz-adv-x="1533" d="M82 -49l209 239q-191 208 -191 486q0 190 89 351.5t241.5 255t333.5 93.5q238 0 420 -157l209 239l59 -53l-211 -242q97 -116 143 -234t46 -255q0 -185 -90.5 -347t-243.5 -258t-328 -96q-239 0 -420 164l-207 -237zM303 682q0 -197 90 -373l697 803q-130 160 -328 160 t-328.5 -167.5t-130.5 -422.5zM442 244q69 -84 147 -123t177 -39q130 0 235.5 76.5t165.5 212t60 303.5q0 104 -20.5 188t-69.5 180z" />
<glyph unicode="&#xd9;" horiz-adv-x="1597" d="M137 1276v76h488v-76h-154v-774q0 -186 101.5 -298t271.5 -112q175 0 283 114t108 298v772h-154v76h412v-76h-154v-780q0 -164 -60 -274t-187 -179q-134 -70 -285 -70q-223 0 -369.5 132t-146.5 333v838h-154zM485 1681h220l235 -235h-115z" />
<glyph unicode="&#xda;" horiz-adv-x="1597" d="M137 1276v76h488v-76h-154v-774q0 -186 101.5 -298t271.5 -112q175 0 283 114t108 298v772h-154v76h412v-76h-154v-780q0 -164 -60 -274t-187 -179q-134 -70 -285 -70q-223 0 -369.5 132t-146.5 333v838h-154zM717 1427l235 236h219l-342 -236h-112z" />
<glyph unicode="&#xdb;" horiz-adv-x="1597" d="M137 1276v76h488v-76h-154v-774q0 -186 101.5 -298t271.5 -112q175 0 283 114t108 298v772h-154v76h412v-76h-154v-780q0 -164 -60 -274t-187 -179q-134 -70 -285 -70q-223 0 -369.5 132t-146.5 333v838h-154zM580 1450l229 229h90l219 -229h-90l-174 121l-176 -121h-98z " />
<glyph unicode="&#xdc;" horiz-adv-x="1597" d="M137 1276v76h488v-76h-154v-774q0 -186 101.5 -298t271.5 -112q175 0 283 114t108 298v772h-154v76h412v-76h-154v-780q0 -164 -60 -274t-187 -179q-134 -70 -285 -70q-223 0 -369.5 132t-146.5 333v838h-154zM483 1550q0 43 30 74t73 31q42 0 72 -31t30 -74 q0 -42 -30 -72t-72 -30t-72.5 30t-30.5 72zM948 1550q0 43 31 74t72 31q43 0 73.5 -31t30.5 -74q0 -41 -30.5 -71.5t-73.5 -30.5q-41 0 -72 30.5t-31 71.5z" />
<glyph unicode="&#xe0;" horiz-adv-x="1021" d="M14 0v76h78l393 901h54l376 -901h89l-3 -76h-344v76h91l-93 223h-372l-97 -223h115v-76h-287zM211 1413h190l244 -330h-108zM317 379h306l-150 360z" />
<glyph unicode="&#xe1;" horiz-adv-x="1021" d="M14 0v76h78l393 901h54l376 -901h89l-3 -76h-344v76h91l-93 223h-372l-97 -223h115v-76h-287zM311 1083l244 330h188l-323 -330h-109zM317 379h306l-150 360z" />
<glyph unicode="&#xe2;" horiz-adv-x="1021" d="M14 0v76h78l393 901h54l376 -901h89l-3 -76h-344v76h91l-93 223h-372l-97 -223h115v-76h-287zM246 1083l229 338h90l219 -338h-90l-174 181l-176 -181h-98zM317 379h306l-150 360z" />
<glyph unicode="&#xe3;" horiz-adv-x="1021" d="M14 0v76h78l393 901h54l376 -901h89l-3 -76h-344v76h91l-93 223h-372l-97 -223h115v-76h-287zM145 1128q66 85 124.5 121.5t127.5 36.5q65 0 95 -20l77 -47q58 -37 125 -37q51 0 76.5 13t77.5 65l49 -33q-73 -91 -127.5 -122.5t-136.5 -31.5q-92 0 -162 49 q-53 34 -71 41.5t-48 7.5q-42 0 -77.5 -17.5t-77.5 -59.5zM317 379h306l-150 360z" />
<glyph unicode="&#xe4;" horiz-adv-x="1021" d="M14 0v76h78l393 901h54l376 -901h89l-3 -76h-344v76h91l-93 223h-372l-97 -223h115v-76h-287zM233 1204q0 43 31 74t74 31q41 0 71.5 -31t30.5 -74q0 -41 -30.5 -71.5t-71.5 -30.5q-43 0 -74 30.5t-31 71.5zM317 379h306l-150 360zM596 1204q0 43 30.5 74t73.5 31 q41 0 72 -31t31 -74q0 -41 -31 -71.5t-72 -30.5q-43 0 -73.5 30.5t-30.5 71.5z" />
<glyph unicode="&#xe5;" horiz-adv-x="1021" d="M14 0v76h78l393 901h54l376 -901h89l-3 -76h-344v76h91l-93 223h-372l-97 -223h115v-76h-287zM317 379h306l-150 360zM352 1196q0 68 48 116t116 48t116 -48t48 -116q0 -67 -48 -114.5t-116 -47.5t-116 47.5t-48 114.5zM422 1196q0 -38 28 -66t66 -28q39 0 66.5 27.5 t27.5 66.5q0 40 -27 67t-67 27q-39 0 -66.5 -27.5t-27.5 -66.5z" />
<glyph unicode="&#xe6;" horiz-adv-x="1402" d="M4 0v76h96l498 794l-117 -2v78h711v41h76v-229h-74v106h-336v-342h264v99h74v-283h-74v102h-264v-358h350v108h74v-190h-733v76h156v223h-355l-141 -223h117v-76h-322zM399 379h306v487z" />
<glyph unicode="&#xe7;" horiz-adv-x="1046" d="M102 461q0 225 151.5 367.5t389.5 142.5q71 0 122.5 -12.5t121.5 -47.5v64h74v-244h-74v70q-68 47 -122.5 66.5t-123.5 19.5q-156 0 -259 -115t-103 -289q0 -180 112.5 -302t276.5 -122q54 0 98.5 14t118.5 54l2 104h74v-190q-73 -30 -117.5 -40t-143.5 -19l-79 -66 q92 -36 123.5 -71t31.5 -97q0 -78 -71 -133t-173 -55q-44 0 -75 8q-4 1 -13.5 3t-24.5 6t-30 7q-3 1 -15.5 3.5t-21.5 4.5l56 111q71 -68 149 -68q36 0 60 26t24 65q0 55 -37 84.5t-129 48.5l131 116q-120 15 -190 40t-135 75q-86 68 -132.5 163.5t-46.5 207.5z" />
<glyph unicode="&#xe8;" horiz-adv-x="991" d="M137 0v76h154v794h-154v76h643v41h76v-229h-74v106h-336v-342h263v99l75 2v-285h-75v102h-263v-358h349v108h75v-190h-733zM211 1413h190l244 -330h-108z" />
<glyph unicode="&#xe9;" horiz-adv-x="991" d="M137 0v76h154v794h-154v76h643v41h76v-229h-74v106h-336v-342h263v99l75 2v-285h-75v102h-263v-358h349v108h75v-190h-733zM336 1083l244 330h190l-324 -330h-110z" />
<glyph unicode="&#xea;" horiz-adv-x="991" d="M137 0v76h154v794h-154v76h643v41h76v-229h-74v106h-336v-342h263v99l75 2v-285h-75v102h-263v-358h349v108h75v-190h-733zM246 1083l229 338h88l221 -338h-90l-174 181l-176 -181h-98z" />
<glyph unicode="&#xeb;" horiz-adv-x="991" d="M137 0v76h154v794h-154v76h643v41h76v-229h-74v106h-336v-342h263v99l75 2v-285h-75v102h-263v-358h349v108h75v-190h-733zM242 1204q0 43 30.5 74t71.5 31q43 0 74 -31t31 -74q0 -41 -31 -71.5t-74 -30.5q-41 0 -71.5 30.5t-30.5 71.5zM582 1204q0 43 30.5 74t71.5 31 q43 0 73.5 -31t30.5 -74q0 -41 -30.5 -71.5t-73.5 -30.5q-41 0 -71.5 30.5t-30.5 71.5z" />
<glyph unicode="&#xec;" horiz-adv-x="737" d="M90 1413h191l243 -330h-110zM133 0v76h156v788h-156v82h465v-82h-156v-788h156v-76h-465z" />
<glyph unicode="&#xed;" horiz-adv-x="737" d="M133 0v76h156v788h-156v82h465v-82h-156v-788h156v-76h-465zM225 1083l244 330h190l-325 -330h-109z" />
<glyph unicode="&#xee;" horiz-adv-x="737" d="M133 0v76h156v788h-156v82h465v-82h-156v-788h156v-76h-465zM133 1083l195 338h90l186 -338h-90l-141 181l-140 -181h-100z" />
<glyph unicode="&#xef;" horiz-adv-x="737" d="M129 1204q0 43 30 74t72 31q43 0 73 -31t30 -74q0 -42 -30 -72t-73 -30q-42 0 -72 30t-30 72zM133 0v76h156v788h-156v82h465v-82h-156v-788h156v-76h-465zM428 1204q0 43 30 74t72 31q43 0 73 -31t30 -74q0 -42 -30.5 -72t-72.5 -30t-72 30t-30 72z" />
<glyph unicode="&#xf1;" horiz-adv-x="1337" d="M129 864v82h264l576 -667v585h-156v82h412v-82h-154v-880h-61l-594 696v-604h155v-76h-411v76h153v735l-41 53h-143zM322 1128q66 85 123.5 121.5t125.5 36.5q67 0 97 -20l77 -47q58 -37 125 -37q51 0 76.5 13t77.5 65l49 -33q-73 -91 -127.5 -122.5t-136.5 -31.5 q-92 0 -162 49q-53 34 -71 41.5t-48 7.5q-42 0 -77.5 -17.5t-77.5 -59.5z" />
<glyph unicode="&#xf2;" horiz-adv-x="1175" d="M102 475q0 131 67 245.5t179.5 182.5t241.5 68q127 0 238.5 -68.5t178 -183t66.5 -244.5q0 -132 -66.5 -248t-178 -185t-238.5 -69q-129 0 -241.5 68.5t-179.5 184.5t-67 249zM246 1413h190l244 -330h-109zM279 475q0 -173 90 -294.5t219 -121.5q130 0 220.5 120.5 t90.5 293.5q0 172 -91 292t-220 120t-219 -120t-90 -290z" />
<glyph unicode="&#xf3;" horiz-adv-x="1175" d="M102 475q0 131 67 245.5t179.5 182.5t241.5 68q127 0 238.5 -68.5t178 -183t66.5 -244.5q0 -132 -66.5 -248t-178 -185t-238.5 -69q-129 0 -241.5 68.5t-179.5 184.5t-67 249zM279 475q0 -173 90 -294.5t219 -121.5q130 0 220.5 120.5t90.5 293.5q0 172 -91 292t-220 120 t-219 -120t-90 -290zM395 1083l244 330h188l-323 -330h-109z" />
<glyph unicode="&#xf4;" horiz-adv-x="1175" d="M102 475q0 131 67 245.5t179.5 182.5t241.5 68q127 0 238.5 -68.5t178 -183t66.5 -244.5q0 -132 -66.5 -248t-178 -185t-238.5 -69q-129 0 -241.5 68.5t-179.5 184.5t-67 249zM279 475q0 -173 90 -294.5t219 -121.5q130 0 220.5 120.5t90.5 293.5q0 172 -91 292t-220 120 t-219 -120t-90 -290zM322 1083l231 338h88l219 -338h-88l-176 181l-174 -181h-100z" />
<glyph unicode="&#xf5;" horiz-adv-x="1175" d="M102 475q0 131 67 245.5t179.5 182.5t241.5 68q127 0 238.5 -68.5t178 -183t66.5 -244.5q0 -132 -66.5 -248t-178 -185t-238.5 -69q-129 0 -241.5 68.5t-179.5 184.5t-67 249zM203 1128q66 85 124 121.5t126 36.5q67 0 94 -20l78 -47q58 -37 127 -37q49 0 73.5 12.5 t77.5 65.5l51 -33q-75 -91 -129.5 -122.5t-136.5 -31.5q-50 0 -85.5 10.5t-76.5 38.5q-52 35 -69.5 42t-48.5 7q-42 0 -77 -17.5t-79 -59.5zM279 475q0 -173 90 -294.5t219 -121.5q130 0 220.5 120.5t90.5 293.5q0 172 -91 292t-220 120t-219 -120t-90 -290z" />
<glyph unicode="&#xf6;" horiz-adv-x="1175" d="M102 475q0 131 67 245.5t179.5 182.5t241.5 68q127 0 238.5 -68.5t178 -183t66.5 -244.5q0 -132 -66.5 -248t-178 -185t-238.5 -69q-129 0 -241.5 68.5t-179.5 184.5t-67 249zM279 475q0 -173 90 -294.5t219 -121.5q130 0 220.5 120.5t90.5 293.5q0 172 -91 292t-220 120 t-219 -120t-90 -290zM293 1204q0 43 30 74t72 31q43 0 73 -31t30 -74q0 -42 -30 -72t-73 -30q-42 0 -72 30t-30 72zM682 1204q0 43 30 74t72 31q43 0 73 -31t30 -74q0 -42 -30.5 -72t-72.5 -30t-72 30t-30 72z" />
<glyph unicode="&#xf7;" horiz-adv-x="681" d="M219 881q0 49 33.5 82.5t81.5 33.5q50 0 83.5 -33.5t33.5 -82.5q0 -48 -34 -81.5t-83 -33.5q-47 0 -81 34t-34 81zM242 -55l51 637h82l47 -637h-180z" />
<glyph unicode="&#xf8;" horiz-adv-x="1175" d="M98 -25l138 162q-134 158 -134 340q0 127 67 242t178 183.5t235 68.5q160 0 290 -99l148 172l61 -51l-151 -174q76 -86 109.5 -164.5t33.5 -169.5q0 -136 -65.5 -254t-176.5 -188t-239 -70q-86 0 -156.5 26t-142.5 83l-135 -160zM279 479q0 -115 51 -237l463 540 q-84 103 -205 103q-127 0 -218 -120t-91 -286zM375 172q54 -62 102 -87.5t111 -25.5q129 0 220 121.5t91 294.5q0 123 -61 242z" />
<glyph unicode="&#xf9;" horiz-adv-x="1269" d="M102 864v82h465v-82h-155v-514q0 -126 69 -204t181 -78q116 0 190 80t74 204v512h-154v82h412v-82h-154v-518q0 -166 -109 -269.5t-284 -103.5q-164 0 -271.5 94.5t-107.5 239.5v557h-156zM332 1413h190l244 -330h-111z" />
<glyph unicode="&#xfa;" horiz-adv-x="1269" d="M102 864v82h465v-82h-155v-514q0 -126 69 -204t181 -78q116 0 190 80t74 204v512h-154v82h412v-82h-154v-518q0 -166 -109 -269.5t-284 -103.5q-164 0 -271.5 94.5t-107.5 239.5v557h-156zM420 1083l244 330h190l-324 -330h-110z" />
<glyph unicode="&#xfb;" horiz-adv-x="1269" d="M102 864v82h465v-82h-155v-514q0 -126 69 -204t181 -78q116 0 190 80t74 204v512h-154v82h412v-82h-154v-518q0 -166 -109 -269.5t-284 -103.5q-164 0 -271.5 94.5t-107.5 239.5v557h-156zM389 1083l232 338h88l221 -338h-90l-176 181l-175 -181h-100z" />
<glyph unicode="&#xfc;" horiz-adv-x="1269" d="M102 864v82h465v-82h-155v-514q0 -126 69 -204t181 -78q116 0 190 80t74 204v512h-154v82h412v-82h-154v-518q0 -166 -109 -269.5t-284 -103.5q-164 0 -271.5 94.5t-107.5 239.5v557h-156zM328 1204q0 43 30 74t72 31t72 -31t30 -74q0 -42 -30 -72t-72 -30t-72 30t-30 72 zM760 1204q0 43 30 74t72 31q43 0 73 -31t30 -74q0 -42 -30.5 -72t-72.5 -30t-72 30t-30 72z" />
<glyph unicode="&#xff;" horiz-adv-x="1161" d="M96 864v82h373v-82h-94l237 -346l215 346h-110v82h301v-82h-96l-273 -438v-350h156v-76h-463v76h154v360l-291 428h-109zM295 1171q0 43 30 74t72 31q43 0 74 -31t31 -74q0 -41 -31 -71.5t-74 -30.5q-42 0 -72 30t-30 72zM702 1171q0 43 31 74t72 31q43 0 73.5 -31 t30.5 -74q0 -41 -30.5 -71.5t-73.5 -30.5q-41 0 -72 30.5t-31 71.5z" />
<glyph unicode="&#x152;" horiz-adv-x="1896" d="M100 670q0 189 90 350.5t244 255.5t334 94q38 0 76 -6l76 -10l81 -2h97h563v51l94 -2v-322h-94v178h-485v-524h389v152h92v-402h-90v156h-391v-545h503l2 178h93v-272h-676h-115l-78 -8l-67 -12q-25 -5 -68 -5q-134 0 -258 56t-214 149.5t-144 222t-54 267.5zM305 680 q0 -169 59 -307t162.5 -216.5t229.5 -78.5q132 0 186.5 41t54.5 141v813q0 100 -54.5 146.5t-172.5 46.5q-204 0 -334.5 -164.5t-130.5 -421.5z" />
<glyph unicode="&#x153;" horiz-adv-x="1511" d="M102 475q0 98 39 189t104 158t154 107t185 40q19 0 59 -4l86 -11q63 -8 156 -8h415v41h76v-229h-73v106h-336v-342h262v99l76 2v-285h-76v102h-262v-358h348v108h76v-190h-535h-70q-4 -1 -29.5 -4t-47.5 -6q-86 -13 -140 -13q-121 0 -229 69.5t-173 185t-65 243.5z M279 477q0 -180 91 -299t228 -119q55 0 85.5 2t57.5 12.5t38.5 24t20 47t10 69t1.5 101.5v410q0 88 -46.5 124t-160.5 36q-139 0 -232 -116.5t-93 -291.5z" />
<glyph unicode="&#x178;" horiz-adv-x="1253" d="M16 1276v76h506v-76h-186l352 -537l326 537h-187v76h410v-76h-107l-393 -641v-559h156v-76h-487v76h153v547l-424 653h-119zM344 1544q0 43 29.5 73t72.5 30t73 -30t30 -73t-30 -72.5t-73 -29.5t-72.5 29.5t-29.5 72.5zM809 1544q0 43 29.5 73t72.5 30t73 -30t30 -73 t-30 -72.5t-73 -29.5t-72.5 29.5t-29.5 72.5z" />
<glyph unicode="&#x2000;" horiz-adv-x="891" />
<glyph unicode="&#x2001;" horiz-adv-x="1782" />
<glyph unicode="&#x2002;" horiz-adv-x="891" />
<glyph unicode="&#x2003;" horiz-adv-x="1782" />
<glyph unicode="&#x2004;" horiz-adv-x="594" />
<glyph unicode="&#x2005;" horiz-adv-x="445" />
<glyph unicode="&#x2006;" horiz-adv-x="297" />
<glyph unicode="&#x2007;" horiz-adv-x="297" />
<glyph unicode="&#x2008;" horiz-adv-x="222" />
<glyph unicode="&#x2009;" horiz-adv-x="356" />
<glyph unicode="&#x200a;" horiz-adv-x="99" />
<glyph unicode="&#x2010;" horiz-adv-x="563" d="M86 389v156h391v-156h-391z" />
<glyph unicode="&#x2011;" horiz-adv-x="563" d="M86 389v156h391v-156h-391z" />
<glyph unicode="&#x2012;" horiz-adv-x="563" d="M86 389v156h391v-156h-391z" />
<glyph unicode="&#x2013;" horiz-adv-x="1126" d="M51 426v117h1024v-117h-1024z" />
<glyph unicode="&#x2014;" horiz-adv-x="2555" d="M78 426v117h2392v-117h-2392z" />
<glyph unicode="&#x2018;" horiz-adv-x="512" d="M127 1008q0 85 59 181t166 187l51 -63q-74 -59 -102.5 -99.5t-28.5 -87.5q0 -46 23.5 -71.5t81.5 -44.5q-25 -67 -53 -92t-80 -25q-47 0 -82 34t-35 81z" />
<glyph unicode="&#x2019;" horiz-adv-x="512" d="M109 956q74 60 102.5 100.5t28.5 86.5t-24 73t-81 44q25 67 52.5 91.5t80.5 24.5q47 0 82 -33t35 -79q0 -86 -58.5 -182t-166.5 -189z" />
<glyph unicode="&#x201a;" horiz-adv-x="512" d="M115 -207q73 58 102 99.5t29 87.5q0 45 -24 71t-83 45q25 67 53.5 92t79.5 25q49 0 83 -33.5t34 -79.5q0 -86 -58.5 -181.5t-166.5 -188.5z" />
<glyph unicode="&#x201c;" horiz-adv-x="837" d="M127 1008q0 85 59 181t166 187l51 -63q-74 -59 -102.5 -99.5t-28.5 -87.5q0 -46 23.5 -71.5t81.5 -44.5q-25 -67 -53 -92t-80 -25q-47 0 -82 34t-35 81zM455 1008q0 85 58.5 181.5t166.5 186.5l49 -63q-74 -59 -102.5 -99.5t-28.5 -87.5q0 -46 23.5 -71.5t80.5 -44.5 q-25 -67 -53 -92t-80 -25q-47 0 -80.5 34t-33.5 81z" />
<glyph unicode="&#x201d;" horiz-adv-x="837" d="M109 956q74 60 102.5 100.5t28.5 86.5t-24 73t-81 44q25 67 52.5 91.5t80.5 24.5q47 0 82 -33t35 -79q0 -86 -58.5 -182t-166.5 -189zM434 956q74 60 102.5 100.5t28.5 86.5q0 47 -23 73.5t-81 43.5q25 67 52.5 91.5t80.5 24.5q47 0 82 -33t35 -79q0 -86 -59 -182 t-167 -189z" />
<glyph unicode="&#x201e;" horiz-adv-x="837" d="M109 -207q73 58 102 99.5t29 87.5q0 45 -23.5 71t-81.5 45q25 68 53 92.5t80 24.5q47 0 82 -33.5t35 -79.5q0 -86 -58.5 -181.5t-166.5 -188.5zM434 -207q74 58 102.5 99t28.5 88q0 46 -23 71.5t-81 44.5q25 68 53 92.5t80 24.5q47 0 82 -33.5t35 -79.5q0 -86 -59 -181.5 t-167 -188.5z" />
<glyph unicode="&#x2022;" d="M102 254q0 71 40.5 134t129.5 132l131 101l-129 100q-63 50 -91.5 99t-28.5 110q0 114 102 193t250 79q132 0 231 -76.5t99 -177.5q0 -52 -37 -110.5t-99 -104.5l-102 -76l164 -127q87 -68 121.5 -118.5t34.5 -112.5q0 -141 -122.5 -236.5t-303.5 -95.5 q-169 0 -279.5 80.5t-110.5 206.5zM256 266q0 -104 66 -164.5t180 -60.5q107 0 178.5 57.5t71.5 143.5q0 102 -113 190l-174 133l-117 -92q-92 -73 -92 -207zM328 967q0 -90 90 -168l117 -99l77 64q34 28 57 82t23 108q0 77 -49.5 123.5t-132.5 46.5q-82 0 -132 -43 t-50 -114z" />
<glyph unicode="&#x2026;" horiz-adv-x="1536" d="M135 98q0 49 35.5 84t85.5 35t85.5 -35t35.5 -84q0 -51 -35.5 -86t-85.5 -35t-85.5 35t-35.5 86zM666 98q0 50 34.5 84.5t85.5 34.5q50 0 84.5 -34.5t34.5 -84.5q0 -51 -34.5 -86t-84.5 -35q-51 0 -85.5 35t-34.5 86zM1178 98q0 50 34.5 84.5t83.5 34.5q51 0 86 -34.5 t35 -84.5q0 -51 -35 -86t-86 -35q-50 0 -84 35t-34 86z" />
<glyph unicode="&#x202f;" horiz-adv-x="356" />
<glyph unicode="&#x2039;" horiz-adv-x="702" d="M119 459l475 393v-84l-244 -309l244 -309v-87z" />
<glyph unicode="&#x203a;" horiz-adv-x="681" d="M115 63v87l241 309l-241 309v84l475 -393z" />
<glyph unicode="&#x205f;" horiz-adv-x="445" />
<glyph unicode="&#x2122;" d="M94 0v72l342 336q64 62 120 145.5t81 151.5q29 85 29 167q0 106 -46 164t-131 58q-81 0 -151.5 -38t-144.5 -122l-70 61q109 117 195 162t204 45q150 0 244 -87.5t94 -227.5q0 -106 -54 -206t-175 -218l-338 -326h618v-137h-817z" />
<glyph unicode="&#x25fc;" horiz-adv-x="942" d="M0 0v942h942v-942h-942z" />
</font>
</defs>
</svg>
