<?xml version="1.0" encoding="utf-8"?>
<!-- Generator: Adobe Illustrator 19.1.0, SVG Export Plug-In . SVG Version: 6.00 Build 0)  -->
<svg version="1.1" id="Laag_1" xmlns="http://www.w3.org/2000/svg" xmlns:xlink="http://www.w3.org/1999/xlink" x="0px" y="0px"
	 viewBox="0 0 100 100" style="enable-background:new 0 0 100 100;" xml:space="preserve">
<style type="text/css">
	.st0{fill:#E2231B;}
</style>
<g>
	<g>
		<path class="st0" d="M8,53.7h4.8c0.4,0,0.7,0.3,0.7,0.8v44.8c0,0.4,0.3,0.8,0.7,0.8h25.9c0.4,0,0.7-0.3,0.7-0.8V69.9
			c0-0.4,0.3-0.8,0.7-0.8h16.8c0.4,0,0.7,0.3,0.7,0.8v29.3c0,0.4,0.3,0.8,0.7,0.8h25.9c0.4,0,0.7-0.3,0.7-0.8V54.5
			c0-0.4,0.3-0.8,0.7-0.8H92c0.6,0,1-0.8,0.5-1.3l-42-44.4c-0.3-0.3-0.7-0.3-1,0l-42,44.4C7,52.9,7.4,53.7,8,53.7z"/>
		<path class="st0" d="M49.5,0.2L0.2,52.4c-0.5,0.5-0.1,1.3,0.5,1.3h1.6c0.2,0,0.4-0.1,0.5-0.2L49.5,4.1c0.3-0.3,0.7-0.3,1,0
			l46.7,49.4c0.1,0.1,0.3,0.2,0.5,0.2h1.6c0.6,0,1-0.8,0.5-1.3L50.5,0.2C50.2-0.1,49.8-0.1,49.5,0.2z"/>
	</g>
</g>
</svg>
