<?xml version="1.0" encoding="utf-8"?>
<!-- Generator: Adobe Illustrator 19.1.0, SVG Export Plug-In . SVG Version: 6.00 Build 0)  -->
<svg version="1.1" id="Laag_1" xmlns="http://www.w3.org/2000/svg" xmlns:xlink="http://www.w3.org/1999/xlink" x="0px" y="0px"
	 viewBox="0 0 100 100" style="enable-background:new 0 0 100 100;" xml:space="preserve">
<style type="text/css">
	.st0{fill:#E2231B;}
</style>
<g>
	<g>
		<path class="st0" d="M50,83.5l25.2-48c1.5-3.1,2.3-6.5,2.3-10.1C77.5,11.3,65.2,0,50,0C34.8,0,22.5,11.3,22.5,25.3
			c0,3.6,0.8,7,2.3,10.1L50,83.5z M50,12.8c5.5,0,10,4.1,10,9.2c0,5.1-4.5,9.2-10,9.2c-5.5,0-10-4.1-10-9.2
			C40,16.9,44.5,12.8,50,12.8z"/>
		<polygon class="st0" points="85.7,67 64.3,67 78.6,100 100,100 		"/>
		<polygon class="st0" points="14.3,67 0,100 21.4,100 35.7,67 		"/>
		<polygon class="st0" points="60.4,67 50,86.8 39.6,67 38.6,67 24.3,100 75.7,100 61.4,67 		"/>
	</g>
</g>
</svg>
