<?xml version="1.0" standalone="no"?>
<!DOCTYPE svg PUBLIC "-//W3C//DTD SVG 1.1//EN" "http://www.w3.org/Graphics/SVG/1.1/DTD/svg11.dtd" >
<svg xmlns="http://www.w3.org/2000/svg">
<metadata></metadata>
<defs>
<font id="scala_capsbold" horiz-adv-x="512" >
<font-face units-per-em="2048" ascent="1638" descent="-410" />
<missing-glyph horiz-adv-x="500" />
<glyph horiz-adv-x="0" />
<glyph horiz-adv-x="682" />
<glyph unicode=" " />
<glyph unicode="!" horiz-adv-x="540" d="M145 1030h263l-70 -637h-125zM154 94q0 47 34.5 82t81.5 35t82 -35t35 -82t-35 -82t-82 -35t-81.5 35t-34.5 82z" />
<glyph unicode="&#x22;" horiz-adv-x="837" d="M166 885v463h172v-463h-172zM496 885v463h170v-463h-170z" />
<glyph unicode="#" horiz-adv-x="1126" d="M6 420l29 151h221l45 234h-221l29 149h223l78 394h155l-76 -394h259l75 394h162l-76 -394h211l-28 -149h-213l-43 -234h215l-29 -151h-217l-82 -420h-162l82 420h-260l-82 -420h-160l84 420h-219zM416 571h256l47 234h-260z" />
<glyph unicode="$" horiz-adv-x="1112" d="M82 92l131 209q68 -84 106 -117.5t125 -87.5l78 6v467q-19 13 -45.5 29.5t-30.5 19.5q-164 106 -210.5 144.5t-85.5 99.5q-44 68 -44 162q0 148 114 245t302 111v119h94v-117q166 -9 229 -24t154 -68l-137 -194q-59 74 -93 103.5t-110 70.5l-43 -6v-439q30 -20 105 -65 q140 -87 202 -142t93 -118q33 -68 33 -138q0 -160 -120.5 -265.5t-312.5 -116.5v-119h-94v112q-183 12 -259.5 33t-180.5 86zM375 1081q0 -59 29 -98t118 -100v372q-70 -12 -108.5 -57.5t-38.5 -116.5zM616 113q88 32 123 72.5t35 109.5q0 72 -36 123t-122 100v-405z" />
<glyph unicode="%" horiz-adv-x="1740" d="M70 1014q0 149 105 254.5t253 105.5q149 0 253.5 -105.5t104.5 -254.5t-104.5 -254t-253.5 -105q-148 0 -253 105t-105 254zM174 -94l1180 1501h194l-1179 -1501h-195zM227 1014q0 -83 59 -142t142 -59q84 0 142.5 58.5t58.5 142.5t-58.5 142t-142.5 58q-83 0 -142 -58.5 t-59 -141.5zM954 332q0 149 105 253.5t254 104.5q148 0 253 -104.5t105 -253.5q0 -148 -105 -253.5t-253 -105.5q-149 0 -254 105.5t-105 253.5zM1112 332q0 -84 58.5 -142.5t142.5 -58.5q83 0 141.5 59t58.5 142t-58.5 141.5t-141.5 58.5q-85 0 -143 -58t-58 -142z" />
<glyph unicode="&#x26;" horiz-adv-x="1146" d="M66 219q0 79 60.5 139t197.5 127q-55 63 -79.5 93t-46.5 72t-22 77q0 123 95 188.5t243 65.5q127 0 206 -50t79 -138q0 -90 -84 -150l-105 -74l-43 54q17 24 25.5 52t10 46.5t1.5 54.5q0 50 -22 86.5t-70 36.5q-50 0 -73 -41.5t-23 -91.5q0 -37 11.5 -63.5t49.5 -73.5 l268 -340q38 49 57 81.5t46 96.5h-119v84h344v-84h-119q-44 -103 -72 -153.5t-81 -108.5q54 -66 83 -93.5t50 -27.5q9 0 20 7t23.5 21t20.5 24t20.5 28t15.5 22l78 -63q-65 -91 -106 -120.5t-105 -29.5q-180 0 -266 103q-74 -58 -129 -80.5t-133 -22.5q-123 0 -215 71 t-92 175zM262 221q0 -69 45 -109t103 -40q42 0 73 16t84 59l-188 244q-29 -21 -41.5 -31.5t-34.5 -33t-31.5 -48.5t-9.5 -57z" />
<glyph unicode="'" d="M172 885v463h170v-463h-170z" />
<glyph unicode="(" horiz-adv-x="632" d="M141 414q0 172 34 328t108 331q44 103 72 154t83 125h158q-94 -182 -152.5 -442t-58.5 -496t58.5 -497t152.5 -441h-158q-54 74 -82.5 124.5t-72.5 153.5q-74 175 -108 331.5t-34 328.5z" />
<glyph unicode=")" horiz-adv-x="632" d="M37 -524q92 180 150.5 441t58.5 497q0 237 -58 497t-151 441h158q53 -72 80.5 -122.5t72.5 -156.5q75 -172 108 -328.5t33 -330.5t-33 -331t-108 -329q-46 -106 -73 -156t-80 -122h-158z" />
<glyph unicode="*" horiz-adv-x="1024" d="M43 983l68 209l327 -180l-24 -76zM154 637l272 256l66 -49l-158 -338zM403 1403h222l-70 -367h-82zM532 846l66 49l272 -256l-178 -131zM586 1012l327 178l68 -209l-371 -47z" />
<glyph unicode="+" horiz-adv-x="1126" d="M78 401v168h401v402h168v-402h402v-168h-402v-401h-168v401h-401z" />
<glyph unicode="," d="M94 -207q72 58 102.5 102.5t30.5 88.5q0 43 -24.5 69t-81.5 43q26 65 57.5 91t83.5 26q64 0 100.5 -38.5t36.5 -104.5q0 -170 -221 -357z" />
<glyph unicode="-" horiz-adv-x="563" d="M66 354v230h426v-230h-426z" />
<glyph unicode="." d="M119 115q0 57 40 97t97 40t97 -40t40 -97t-40 -97.5t-97 -40.5t-97 40.5t-40 97.5z" />
<glyph unicode="/" horiz-adv-x="837" d="M84 -498l516 1850h154l-514 -1850h-156z" />
<glyph unicode="0" horiz-adv-x="1024" d="M63 668q0 193 57 353.5t159.5 254.5t228.5 94q128 0 231.5 -94t160 -254t56.5 -352t-56.5 -351t-160 -252.5t-231.5 -93.5q-125 0 -227.5 93.5t-160 252.5t-57.5 349zM332 672q0 -269 47 -433.5t133 -164.5q84 0 130 163.5t46 428.5q0 273 -45.5 438.5t-130.5 165.5 q-88 0 -134 -163.5t-46 -434.5z" />
<glyph unicode="1" horiz-adv-x="1024" d="M104 1167l529 207v-1288h221v-86h-680v86h219v1061l-260 -111z" />
<glyph unicode="2" horiz-adv-x="1024" d="M94 0v100l334 422q82 104 130 226t48 237q0 45 -4.5 79t-18 72.5t-44.5 59.5t-78 21q-64 0 -129.5 -32.5t-151.5 -107.5l-86 105q113 103 206.5 141.5t219.5 38.5q160 0 254 -99.5t94 -283.5q0 -195 -221 -451l-305 -356h510v129h119v-301h-877z" />
<glyph unicode="3" horiz-adv-x="1024" d="M76 61l51 140q165 -97 287 -97q103 0 174 79t71 188q0 123 -64 199.5t-167 76.5h-152v88q50 26 80.5 43t69.5 42.5t61.5 49t44.5 54t31.5 67t9.5 78.5q0 74 -52 121t-109 41q-4 0 -23 -2t-26 -3t-25 -4.5t-31 -9t-33 -14t-41.5 -21.5t-46.5 -30l-69 96q99 73 171 97 t212 24q80 0 142.5 -20t98.5 -50t58.5 -69.5t30.5 -73.5t8 -68q0 -97 -76 -187t-199 -126q77 -4 120 -20t93 -56q133 -109 133 -288q0 -72 -33 -148t-92 -140.5t-152 -106t-202 -40.5q-119 1 -198 25t-156 65z" />
<glyph unicode="4" horiz-adv-x="1024" d="M47 340v96l645 930h74v-874h229v-152h-229v-340h-219v340h-500zM221 494h326v483z" />
<glyph unicode="5" horiz-adv-x="1024" d="M115 59l59 119q57 -43 108.5 -56t118.5 -13q92 0 163 70t71 212q0 123 -40.5 192.5t-135.5 114.5q-48 23 -103 28t-172 5v621h533v80h114v-273h-489v-299q281 0 421 -105.5t140 -310.5q0 -92 -33 -171.5t-84.5 -132.5t-115.5 -91t-125.5 -55t-114.5 -17h-17h-25t-29 1 t-35.5 3t-37.5 6t-41.5 10t-42 14.5t-44.5 20.5t-43 27z" />
<glyph unicode="6" horiz-adv-x="1024" d="M90 586q5 273 144 477.5t380 275.5q33 10 65.5 16.5t68 9t56 3.5t61.5 1.5t55 0.5v-100q-62 -4 -89.5 -6.5t-73.5 -12.5t-83 -26q-58 -26 -128 -86.5t-102 -118.5q-92 -168 -92 -445q0 -216 53 -350.5t132 -134.5q87 0 126 77t39 228q0 47 -7.5 93.5t-24 91.5t-48 72.5 t-73.5 27.5h-86l12 100q15 3 36 8t27.5 6.5t19.5 3.5t23.5 2.5t26.5 0.5q78 0 141 -26.5t102.5 -67.5t66 -94t37 -102t10.5 -95q0 -63 -13 -123t-45.5 -119t-81 -103t-125 -71t-172.5 -27q-205 0 -324 169.5t-114 443.5z" />
<glyph unicode="7" horiz-adv-x="1024" d="M96 987v426h115v-59h772v-78l-362 -772q-49 -100 -105 -207q-60 -109 -119 -203q-24 -42 -104 -153l-189 114q24 21 43 38.5t37.5 37.5t28 29.5t27.5 32.5t22.5 28.5t26.5 34.5t26 35q88 119 166 284l273 584h-543v-172h-115z" />
<glyph unicode="8" horiz-adv-x="983" d="M80 315q0 85 38 164t107 133l129 103l-127 106q-116 98 -116 254q0 135 103.5 217t279.5 82q167 0 264.5 -81t97.5 -214q0 -69 -30 -118t-117 -123l-78 -68l160 -131q65 -54 97 -134t32 -163q0 -160 -121 -262.5t-328 -102.5q-94 0 -171 31t-123.5 80.5t-71.5 108.5 t-25 118zM260 315q0 -101 60 -160t153 -59q101 0 158 63t57 136q0 86 -29.5 145t-89.5 105l-118 94l-95 -84q-96 -87 -96 -240zM336 1102q0 -57 14 -92t62 -72l125 -98l49 51q92 95 92 199q0 84 -49.5 127t-136.5 43q-156 0 -156 -158z" />
<glyph unicode="9" horiz-adv-x="1024" d="M80 930q0 63 13 122.5t45 118.5t80.5 103t125 71t172.5 27q205 0 324 -169t114 -443q-5 -273 -144 -478t-380 -276q-33 -10 -65.5 -16.5t-67.5 -9t-55.5 -3.5t-62 -1.5t-54.5 -0.5v101q62 4 89.5 6.5t73.5 12.5t83 26q58 26 127 86.5t102 118.5q92 168 92 444 q0 216 -52.5 350.5t-131.5 134.5q-87 0 -126.5 -77t-39.5 -228q0 -47 7.5 -93.5t24.5 -91t48.5 -72t73.5 -27.5h86l-13 -101q-11 -2 -30.5 -6.5t-25 -6t-17.5 -3.5t-18.5 -2.5t-17.5 -1t-24 -0.5q-78 0 -141 26.5t-102 67.5t-65.5 94t-37 102t-10.5 95z" />
<glyph unicode=":" d="M117 115q0 57 40 97t97 40t98 -40t41 -97t-41 -97.5t-98 -40.5t-97 40.5t-40 97.5zM117 815q0 57 40 97t97 40t97 -40t40 -97t-40 -97t-97 -40t-97 40t-40 97z" />
<glyph unicode=";" d="M84 -207q70 58 100.5 102.5t30.5 88.5q0 43 -23.5 69t-80.5 43q25 64 56.5 90.5t84.5 26.5q63 0 100 -38.5t37 -104.5q0 -170 -221 -357zM125 815q0 57 40 97t97 40t97 -40t40 -97t-40 -97t-97 -40t-97 40t-40 97z" />
<glyph unicode="&#x3c;" horiz-adv-x="1126" d="M80 430v111l967 430v-164l-728 -322l728 -321v-164z" />
<glyph unicode="=" horiz-adv-x="1126" d="M51 223v168h1024v-168h-1024zM51 557v168h1024v-168h-1024z" />
<glyph unicode="&#x3e;" horiz-adv-x="1126" d="M80 0v164l727 321l-727 322v164l967 -430v-111z" />
<glyph unicode="?" horiz-adv-x="813" d="M184 846l74 205q87 -25 140.5 -49.5t101.5 -61.5q64 -49 98.5 -123t34.5 -162q0 -96 -51.5 -161.5t-120.5 -65.5h-37l-18 -115h-91v254h179q22 50 22 88q0 67 -71.5 107.5t-260.5 83.5zM246 94q0 50 33.5 84.5t82.5 34.5q48 0 83.5 -34t35.5 -81q1 -49 -34 -85t-85 -36 q-49 0 -82.5 34.5t-33.5 82.5z" />
<glyph unicode="@" horiz-adv-x="2048" d="M193 446q0 187 65.5 348t180.5 274t277.5 177t350.5 64q150 0 293 -61.5t250.5 -163.5t173 -243t65.5 -292q0 -162 -60.5 -290.5t-175.5 -202.5t-265 -74q-220 0 -220 196q0 47 15 113l22 88q-20 -46 -45 -91t-66 -100t-86.5 -95.5t-107.5 -68.5t-127 -28q-29 0 -57 20.5 t-53.5 63t-41.5 120t-16 179.5q0 156 70.5 295t189.5 223t254 84q53 0 85.5 -9.5t84.5 -41.5l62 51h110l-116 -727q-10 -71 9 -111.5t85 -40.5q77 0 140.5 42t102 109t59.5 146t21 158q0 121 -55.5 236.5t-145 200t-207.5 135.5t-237 51q-137 0 -258 -38.5t-210.5 -106.5 t-154 -158.5t-97.5 -196t-33 -217.5q0 -129 41 -243t109.5 -196.5t156.5 -143t183 -90.5t187 -30q108 0 178.5 15t157.5 57l41 -121q-96 -44 -177 -62t-189 -18q-218 0 -406.5 110t-300.5 298t-112 407zM791 471q-2 -93 8.5 -158.5t27.5 -94t37 -28.5q38 0 73.5 39.5 t106.5 149.5q103 159 150 422q-41 52 -60.5 64t-64.5 12q-59 0 -112.5 -43t-88.5 -106t-55.5 -132t-21.5 -125z" />
<glyph unicode="A" horiz-adv-x="1376" d="M0 0v86h127l528 1309h125l508 -1309h86v-86h-500v86h144l-127 332h-498l-133 -332h164v-86h-424zM442 543h402l-195 512z" />
<glyph unicode="B" horiz-adv-x="1300" d="M102 0v86h156v1180h-156v86h658q187 0 288 -84.5t101 -241.5q0 -149 -91 -229.5t-261 -83.5q201 -6 310.5 -98.5t109.5 -258.5q0 -169 -110 -262.5t-308 -93.5h-697zM522 111h142q280 0 280 260q0 124 -74.5 199t-197.5 75h-150v-534zM522 758h146q89 0 149 71.5 t60 174.5q0 107 -58 171t-155 64h-142v-481z" />
<glyph unicode="C" horiz-adv-x="1366" d="M86 672q0 149 55 279.5t150 224t228.5 147t285.5 53.5q100 0 177.5 -15.5t166.5 -53.5v86h113v-367h-113v131q-87 61 -148 83t-143 22q-214 0 -348.5 -161.5t-134.5 -416.5q0 -164 66 -299.5t181.5 -213t254.5 -77.5q76 0 138 18.5t134 63.5v156h115v-273 q-133 -48 -228.5 -67t-210.5 -19q-160 0 -297.5 52t-234.5 144t-152 222t-55 281z" />
<glyph unicode="D" horiz-adv-x="1515" d="M102 0v86h156v1180h-156v86h639q191 0 349 -89t249 -243.5t91 -341.5q0 -141 -56 -270t-160 -230q-97 -92 -211 -135t-264 -43h-637zM522 113h166q127 0 231 73.5t163 203t59 288.5q0 148 -60.5 277t-163.5 205.5t-221 76.5h-174v-1124z" />
<glyph unicode="E" horiz-adv-x="1189" d="M102 0v86h156v1180h-156v86h844v57h111v-326h-109v148h-426v-483h328v139l111 2v-404l-111 -2v144h-328v-506h445v151h110v-272h-975z" />
<glyph unicode="F" horiz-adv-x="1169" d="M102 0v86h156v1180h-156v86h844v57h111v-326h-109v148h-426v-483h328v139l111 2v-404l-111 -2v144h-328v-541h137v-86h-557z" />
<glyph unicode="G" horiz-adv-x="1525" d="M86 678q0 223 127 406t328 249q140 45 303 45q94 0 164 -13t170 -48v76h112v-365h-112v156q-79 42 -149 60t-159 18q-137 0 -251 -77t-179 -211t-65 -296q0 -156 70.5 -290t191 -213t260.5 -79q67 0 158 29v340h-176v86h594v-86h-154v-414q-154 -42 -259.5 -60 t-209.5 -18q-166 0 -308.5 52.5t-242.5 145t-156.5 223.5t-56.5 284z" />
<glyph unicode="H" horiz-adv-x="1710" d="M102 0v86h156v1180h-156v86h574v-86h-154v-521h666v521h-154v86h574v-86h-156v-1180h156v-86h-574v86h154v539h-666v-539h154v-86h-574z" />
<glyph unicode="I" horiz-adv-x="761" d="M94 0v86h156v1180h-156v86h574v-86h-154v-1180h154v-86h-574z" />
<glyph unicode="J" horiz-adv-x="745" d="M61 -383q92 88 131 184t39 234v158v1073h-153v86h573v-86h-155v-1303q-73 -155 -134.5 -231.5t-214.5 -204.5z" />
<glyph unicode="K" horiz-adv-x="1337" d="M102 0v86h156v1178l-156 2v86h574v-86h-154v-1180h154v-86h-574zM541 668l444 598h-178v86h491v-86h-157l-367 -490l506 -690h98v-86h-346z" />
<glyph unicode="L" horiz-adv-x="1087" d="M102 0v86h156v1180h-156v86h574v-86h-154v-1145h436v151h111v-272h-967z" />
<glyph unicode="M" horiz-adv-x="1845" d="M78 0v86h172v1180h-172v86h362l486 -953l428 953h405v-86h-172v-1180h172v-86h-608v86h172v885l-451 -991l-493 972v-866h172v-86h-473z" />
<glyph unicode="N" horiz-adv-x="1509" d="M68 1266v86h407l664 -944v858h-162v86h463v-86h-172v-1289h-144l-712 1004v-895h161v-86h-462v86h170v1075l-66 105h-147z" />
<glyph unicode="O" horiz-adv-x="1521" d="M86 676q0 144 53 274t143 223t215.5 148t264.5 55t264.5 -55t216 -148t144 -223t53.5 -274t-53.5 -274.5t-144 -224t-216 -149t-264.5 -55.5t-264.5 55.5t-215.5 149t-143 224t-53 274.5zM375 676q0 -153 53.5 -288.5t143 -216.5t190.5 -81q102 0 192 81t143.5 216.5 t53.5 288.5q0 152 -53.5 287t-144 216t-191.5 81t-190.5 -81t-143 -216t-53.5 -287z" />
<glyph unicode="P" horiz-adv-x="1228" d="M102 0v86h156v1180h-156v86h621q191 0 305.5 -106t114.5 -283q0 -110 -58.5 -204t-159 -149t-218.5 -55q-47 0 -111 12v101q27 -6 55 -6q104 0 160.5 73t56.5 209q0 145 -56.5 219t-166.5 74h-123v-1151h174v-86h-594z" />
<glyph unicode="Q" horiz-adv-x="1554" d="M86 674q0 193 90 354.5t245.5 254.5t342.5 93q137 0 262 -55t215 -148.5t143.5 -223.5t53.5 -273q0 -149 -61.5 -290t-169 -242t-236.5 -136q107 -115 198.5 -178t151.5 -63q39 0 133 69l64 -96l-308 -225v2q-105 56 -161 94.5t-140 109.5q-71 61 -122 112.5t-138 150.5 q-163 40 -230.5 77t-152.5 134q-85 100 -132.5 226t-47.5 253zM375 676q0 -151 53.5 -286.5t143 -217.5t188.5 -82q102 0 192 81t143.5 216.5t53.5 288.5q0 111 -32 218.5t-84.5 187.5t-122.5 129t-142 49q-104 0 -194.5 -80t-144.5 -215t-54 -289z" />
<glyph unicode="R" horiz-adv-x="1339" d="M102 0v86h156v1180h-156v86h605q133 0 213 -23t135 -78q100 -100 100 -264q0 -274 -287 -362l291 -447q35 -53 58.5 -71.5t54.5 -18.5h84v-88h-260q-91 0 -124.5 19.5t-86.5 101.5l-307 481h-56v-516h154v-86h-574zM522 705h121q106 0 172 76t66 198q0 123 -60.5 190.5 t-169.5 67.5h-129v-532z" />
<glyph unicode="S" horiz-adv-x="1150" d="M166 1001q0 169 114.5 272t301.5 103q115 0 221 -45v62h110v-351h-110v142q-66 42 -113.5 59t-103.5 17q-79 0 -134 -50.5t-55 -122.5q0 -62 48.5 -113.5t195.5 -144.5q36 -24 79 -51.5t65 -41.5t32 -21q73 -51 125 -133q57 -92 57 -211q0 -175 -114.5 -286.5 t-294.5 -111.5q-162 0 -299 80v-71h-113v368h113v-151q69 -56 128 -78.5t134 -22.5q95 0 157 51.5t62 131.5q0 69 -53.5 128t-196.5 152q-146 92 -191.5 126.5t-86.5 82.5q-78 90 -78 231z" />
<glyph unicode="T" horiz-adv-x="1228" d="M16 1061v348h113v-57h971v57h112v-348h-112v170h-352v-1145h196v-86h-659v86h198v1145h-354v-170h-113z" />
<glyph unicode="U" horiz-adv-x="1597" d="M102 1266v86h574v-86h-154v-764q0 -155 32 -235.5t110 -121.5q76 -39 170 -39q184 0 286.5 104t102.5 292v762h-170v88h475v-86h-172v-770q0 -174 -62 -286t-192 -173q-140 -64 -297 -64q-249 0 -398 126.5t-149 338.5v828h-156z" />
<glyph unicode="V" horiz-adv-x="1353" d="M-16 1266v86h557v-86h-174l366 -940l369 940h-148v86h416v-86h-119l-508 -1301h-131l-508 1301h-120z" />
<glyph unicode="W" horiz-adv-x="1929" d="M-16 1266v86h497v-86h-114l366 -940l166 417l-205 523h-114v86h790v-86h-145l-142 -365l236 -590l373 955h-148v86h402v-86h-103l-508 -1301h-131l-231 588l-230 -588h-131l-508 1301h-120zM940 1266l80 -205l82 205h-162z" />
<glyph unicode="X" horiz-adv-x="1351" d="M-16 0v86h155l414 559l-391 621h-158v86h590v-86h-135l256 -406l301 406h-180v86h514v-86h-162l-395 -531l413 -649h162v-86h-592v86h133l-274 436l-326 -436h189v-86h-514z" />
<glyph unicode="Y" horiz-adv-x="1253" d="M-16 1266v86h573v-86h-151l290 -449l273 449h-174v86h477v-86h-148l-342 -561v-619h156v-86h-573v86h153v565l-405 615h-129z" />
<glyph unicode="Z" horiz-adv-x="1368" d="M121 0v61l762 1170h-652v-164h-110v342h110v-57h975v-64l-755 -1167h686v211h110v-332h-1126z" />
<glyph unicode="[" d="M106 -498v1850h365v-127h-174v-1596h174v-127h-365z" />
<glyph unicode="\" horiz-adv-x="837" d="M84 1352h156l514 -1850h-154z" />
<glyph unicode="]" d="M41 -387h174v1628h-174v111h365v-1850h-365v111z" />
<glyph unicode="^" horiz-adv-x="1024" d="M94 549l426 854h68l426 -854h-164l-293 616h-12l-295 -616h-156z" />
<glyph unicode="_" horiz-adv-x="1024" d="M0 0h1024v-168h-1024v168z" />
<glyph unicode="`" horiz-adv-x="528" d="M27 1413h223l244 -330h-144z" />
<glyph unicode="a" horiz-adv-x="995" d="M-27 0v86h78l393 891h125l377 -891h86v-86h-426v86h90l-92 213h-332l-88 -213h117v-86h-328zM307 379h264l-122 305z" />
<glyph unicode="b" horiz-adv-x="1075" d="M106 0v86h154v774h-154v86h592q130 0 207.5 -64t77.5 -171q0 -92 -72.5 -151.5t-185.5 -59.5q148 -4 228.5 -70t80.5 -182q0 -118 -80.5 -183t-226.5 -65h-621zM508 92h53q215 0 215 166q0 182 -213 182h-55v-348zM508 543h39q79 0 128.5 43t49.5 119q0 74 -43.5 111.5 t-120.5 37.5h-53v-311z" />
<glyph unicode="c" horiz-adv-x="1046" d="M72 471q0 144 76.5 259.5t207 179t289.5 63.5q66 0 117.5 -13.5t124.5 -48.5v64h94v-275h-94v101q-63 45 -117.5 60.5t-128.5 15.5q-100 0 -170 -57.5t-100.5 -143.5t-30.5 -189q0 -190 84 -303.5t246 -113.5q58 0 103 10.5t112 46.5l2 125h94v-211q-157 -68 -346 -68 q-153 0 -282 63.5t-205 178.5t-76 256z" />
<glyph unicode="d" horiz-adv-x="1220" d="M106 0v86h154v774h-154v86h609q136 0 243 -63t164.5 -170.5t57.5 -239.5q0 -205 -132.5 -339t-342.5 -134h-599zM508 92h98q141 0 228.5 106t87.5 273t-87 275t-227 108h-100v-762z" />
<glyph unicode="e" horiz-adv-x="991" d="M106 0v86h154v774h-154v86h674v41h86v-229h-84v96h-274v-322h201v89l86 2v-285h-86v92h-201v-338h287v98h86v-190h-775z" />
<glyph unicode="f" horiz-adv-x="958" d="M106 0v86h154v774h-154v86h674v41h86v-229h-84v96h-274v-322h201v89l86 2v-285h-86v92h-201v-344h154v-86h-556z" />
<glyph unicode="g" horiz-adv-x="1206" d="M72 471q0 139 77 254.5t205.5 180.5t276.5 65q113 0 266 -51v55h92v-275h-92v105q-122 76 -244 76q-77 0 -139 -37t-98.5 -96t-56 -126t-19.5 -133q0 -79 17 -150.5t50.5 -131.5t92 -95.5t133.5 -35.5q13 0 36 -3.5t46.5 -3.5t52.5 7v237h-156v86h557v-86h-155v-272 q-193 -68 -379 -68q-153 0 -282 63.5t-205 178.5t-76 256z" />
<glyph unicode="h" horiz-adv-x="1454" d="M106 0v86h154v774h-154v86h556v-86h-154v-330h436v330h-151v86h555v-86h-154v-774h154v-86h-555v86h151v342h-436v-342h154v-86h-556z" />
<glyph unicode="i" horiz-adv-x="737" d="M96 0v86h154v774h-154v86h555v-86h-153v-774h153v-86h-555z" />
<glyph unicode="j" horiz-adv-x="669" d="M39 -285q52 50 80 82.5t53.5 81t35 109t9.5 147.5v725h-156v86h557v-86h-155v-885q-17 -30 -38.5 -60.5t-41 -53.5t-47.5 -49.5t-45.5 -42.5t-48.5 -39.5t-43.5 -32.5t-42.5 -30.5t-35 -24.5z" />
<glyph unicode="k" horiz-adv-x="1144" d="M86 0v86h154v774h-154v86h514v-86h-113v-774h113v-86h-514zM492 446l346 414h-119v86h379v-86h-117l-272 -323l362 -451h84v-86h-299z" />
<glyph unicode="l" horiz-adv-x="884" d="M106 0v86h154v774h-154v86h556v-86h-154v-768h262v156h94v-248h-758z" />
<glyph unicode="m" horiz-adv-x="1546" d="M109 0v86h153v774h-153v86h399l285 -598l297 598h360v-86h-154v-774h154v-86h-504v86h133v612l-350 -712l-342 733v-633h154v-86h-432z" />
<glyph unicode="n" horiz-adv-x="1337" d="M109 860v86h325l524 -606v520h-145v86h432v-86h-153v-876h-123l-543 645v-543h145v-86h-432v86h154v721l-41 53h-143z" />
<glyph unicode="o" horiz-adv-x="1175" d="M72 475q0 132 66 245.5t185.5 182t266.5 68.5q106 0 202 -40.5t164 -108t108 -158.5t40 -189q0 -99 -39.5 -191t-107 -160.5t-164 -109.5t-203.5 -41q-147 0 -266.5 69t-185.5 184t-66 249zM340 475q0 -176 68.5 -290.5t179.5 -114.5q115 0 182.5 113t67.5 290 q0 174 -69 287.5t-181 113.5q-114 0 -181 -112t-67 -287z" />
<glyph unicode="p" horiz-adv-x="1005" d="M76 0v86h153v774h-153v86h557q140 0 234 -75.5t94 -200.5q0 -128 -98 -212.5t-242 -84.5q-24 0 -76 8v65q36 -4 41 -4q54 0 87.5 61.5t33.5 155.5q0 101 -41 151t-131 50h-58v-774h123v-86h-524z" />
<glyph unicode="q" horiz-adv-x="1175" d="M72 473q0 111 44 206t116.5 158t165.5 98.5t192 35.5q97 0 190 -37.5t164.5 -102t115.5 -158.5t44 -200q0 -126 -56 -230.5t-142 -166.5t-187 -82q69 -80 137.5 -126t108.5 -46q35 0 98 55l51 -90l-242 -135q-124 63 -206.5 136.5t-184.5 199.5q-61 0 -132 38t-133 100.5 t-103 155t-41 191.5zM340 475q0 -180 64.5 -292.5t183.5 -112.5q118 0 184 112t66 291q0 174 -69 287.5t-181 113.5q-113 0 -180.5 -112.5t-67.5 -286.5z" />
<glyph unicode="r" horiz-adv-x="1095" d="M106 0v86h154v774h-154v86h596q149 0 227.5 -65t78.5 -189q0 -103 -59.5 -173t-160.5 -89l191 -278q52 -76 119 -76h57v-76h-149q-83 0 -143.5 17.5t-96.5 68.5l-229 330h-29v-330h154v-86h-556zM508 508h74q76 0 124 47.5t48 130.5q0 85 -46.5 129.5t-127.5 44.5h-72 v-352z" />
<glyph unicode="s" horiz-adv-x="831" d="M96 707q0 107 103.5 185.5t230.5 78.5q113 0 197 -47v51h96v-266h-96v102q-13 7 -33.5 18.5t-27.5 15t-19 9t-19.5 6.5t-18 2.5t-24.5 1.5q-74 0 -111.5 -27.5t-37.5 -88.5q0 -42 24 -78t62 -64t84 -55t92 -57t84 -64t62 -81.5t24 -104.5q0 -113 -99 -192t-229 -79 q-110 0 -231 68v-53h-96v276h96v-106q84 -50 110 -59q29 -9 68 -9q76 0 110.5 28.5t34.5 88.5q0 45 -32.5 86t-80.5 70.5t-105 65.5t-105 71.5t-80.5 89.5t-32.5 117z" />
<glyph unicode="t" horiz-adv-x="909" d="M-16 729v258h94v-41h764v41h96v-258h-96v115h-258v-758h174v-86h-596v86h174v758h-258v-115h-94z" />
<glyph unicode="u" horiz-adv-x="1269" d="M61 860v86h527v-86h-125v-510q0 -137 57 -199.5t172 -62.5q114 0 174 69t60 195v508h-123v86h411v-86h-153v-514q0 -165 -114 -269t-290 -104q-85 0 -161.5 19.5t-140 58.5t-101 105t-37.5 151v553h-156z" />
<glyph unicode="v" horiz-adv-x="978" d="M-27 864v82h490v-82h-129l229 -565l232 565h-148v82h359v-82h-86l-367 -889h-111l-368 889h-101z" />
<glyph unicode="w" horiz-adv-x="1402" d="M-27 864v82h414v-82h-76l248 -598l105 254l-144 344h-69v82h559v-82h-80l-101 -241l146 -361l248 602h-99v82h308v-82h-84l-367 -889h-90l-162 392l-166 -392h-123l-368 889h-99zM707 864l53 -119l47 119h-100z" />
<glyph unicode="x" horiz-adv-x="1030" d="M-10 0v86h102l311 363l-278 415h-119v82h494v-82h-121l160 -272l215 272h-117v82h391v-82h-110l-312 -377l293 -401h111v-86h-467v86h125l-191 272l-221 -272h125v-86h-391z" />
<glyph unicode="y" horiz-adv-x="927" d="M-27 864v82h463v-82h-92l199 -315l192 315h-112v82h344v-82h-99l-270 -438v-340h156v-86h-537v86h156v350l-293 428h-107z" />
<glyph unicode="z" horiz-adv-x="985" d="M78 0v63l524 791h-440v-106h-84v239h84v-41h717v-65l-529 -779h473v140h84v-242h-829z" />
<glyph unicode="{" horiz-adv-x="837" d="M90 475v74h76q75 0 116.5 62t41.5 177v463q0 273 266 273h168v-84h-80q-72 0 -111 -51.5t-39 -147.5v-467q0 -137 -40 -193t-150 -69q110 -15 150 -70t40 -192v-475q0 -97 39 -149t111 -52h80v-98h-168q-266 0 -266 274v486q0 115 -41.5 177t-116.5 62h-76z" />
<glyph unicode="|" d="M178 -524v2048h156v-2048h-156z" />
<glyph unicode="}" horiz-adv-x="837" d="M84 1425v99h170q266 0 266 -273v-485q0 -115 41.5 -177.5t116.5 -62.5h76v-73h-76q-75 0 -116.5 -62.5t-41.5 -177.5v-463q0 -272 -266 -272h-168v84h80q72 0 110.5 51t38.5 147v467q0 136 40.5 191.5t150.5 70.5q-110 15 -151.5 70.5t-41.5 190.5v477q0 97 -37.5 147.5 t-109.5 50.5h-82z" />
<glyph unicode="~" horiz-adv-x="1114" d="M8 455q173 137 326 137q66 0 166 -43l102 -43q86 -37 146 -37q70 0 129.5 22t134.5 76l92 -145q-169 -125 -342 -125q-63 0 -116 15t-150 61q-87 41 -146 41q-123 0 -256 -99z" />
<glyph unicode="&#xa0;" />
<glyph unicode="&#xa1;" horiz-adv-x="540" d="M201 -53l69 637h125l68 -637h-262zM221 883q0 47 35 81.5t82 34.5t82 -34.5t35 -81.5t-35 -82t-82 -35t-82 35t-35 82z" />
<glyph unicode="&#xa2;" horiz-adv-x="907" d="M41 442q0 142 64.5 259t178 184t251.5 67h28l27 154h94l-29 -160q67 -10 107.5 -25.5t114.5 -58.5l-123 -147q-35 45 -56 63t-67 43l-135 -702q91 -13 104 -13q47 0 93 15.5t124 56.5l49 -90q-110 -68 -182.5 -91.5t-167.5 -23.5q-24 0 -47 4l-29 -153h-94l35 170 q-162 38 -251 155.5t-89 292.5zM289 467q0 -95 31 -177.5t88 -137.5l133 692q-252 -89 -252 -377z" />
<glyph unicode="&#xa3;" horiz-adv-x="1179" d="M-14 -463q0 58 63.5 108t171.5 76q41 84 84 240l62 227h-250l33 97l249 41l236 843q43 154 152 242t257 88q115 0 190 -44t75 -112q0 -67 -70 -104q-29 -16 -59 -16q-83 0 -107 96q-11 43 -22.5 61.5t-28.5 18.5q-39 0 -95 -86t-85 -191l-217 -796h391l-41 -138h-383 l-90 -299q-15 -50 -28.5 -76.5t-51.5 -80.5h10q65 0 117 -14t131 -54q75 -37 114.5 -50t75.5 -13q38 0 60 15t22 42q0 50 -80 133l185 119q49 -66 68.5 -109.5t19.5 -89.5q0 -107 -95 -170t-255 -63q-136 0 -222 55l-92 57q-51 32 -125 41q-80 -83 -150 -119t-153 -36 q-31 0 -49 16.5t-18 44.5z" />
<glyph unicode="&#xa4;" horiz-adv-x="1024" d="M2 330v78l141 22q-2 27 -2 82q0 46 6 90h-139v78l162 25q51 161 181 255.5t302 94.5q66 0 117.5 -13.5t124.5 -48.5v64h94v-275h-94v101q-36 28 -57.5 41t-60 23.5t-87.5 10.5q-89 0 -154 -71t-98 -182h373v-103h-395q-6 -44 -6 -84q0 -28 4 -86h397v-102h-383 q50 -260 252 -260q56 0 96.5 10.5t108.5 46.5l2 125h94v-211q-157 -68 -377 -68q-171 0 -287 93t-157 264h-158z" />
<glyph unicode="&#xa5;" horiz-adv-x="1259" d="M16 1352h510v-86h-118l288 -453l275 453h-137v86h409v-86h-117l-346 -561h299v-97h-303v-176h303v-102h-303v-244h127v-86h-504v86h127v244h-301v102h301v176h-301v97h258l-368 561h-97z" />
<glyph unicode="&#xa6;" d="M178 350h156v-874h-156v874zM178 649v875h156v-875h-156z" />
<glyph unicode="&#xa7;" horiz-adv-x="811" d="M6 -369l137 115q64 -82 110 -112.5t103 -30.5q230 0 230 336q0 187 -105 575q-75 283 -103 414t-28 194q0 57 14 97t54 92l84 -17q-10 -39 -10 -80q0 -125 55 -327l110 -408q76 -276 76 -504q0 -143 -31.5 -232t-109.5 -159q-62 -56 -116.5 -76t-143.5 -20 q-125 0 -186.5 27t-139.5 116zM84 1026q0 236 104 363t299 127q120 0 184.5 -29t141.5 -117l-139 -115q-32 63 -93 102.5t-124 39.5q-224 0 -224 -334q0 -185 103 -576q77 -289 105 -417t28 -191q0 -58 -14 -96.5t-54 -91.5l-84 16q11 54 11 80q0 121 -56 326l-110 409 q-78 283 -78 504z" />
<glyph unicode="&#xa8;" horiz-adv-x="831" d="M117 1171q0 51 34.5 86t84.5 35q51 0 85.5 -35t34.5 -86q0 -50 -34.5 -84t-85.5 -34q-50 0 -84.5 34.5t-34.5 83.5zM475 1171q0 51 34.5 86t84.5 35q51 0 86 -35t35 -86q0 -50 -35 -84t-86 -34q-50 0 -84.5 34.5t-34.5 83.5z" />
<glyph unicode="&#xa9;" horiz-adv-x="2048" d="M184 498q0 171 66.5 326t178.5 267.5t268 179t327 66.5t327 -66.5t268 -179t178.5 -267.5t66.5 -326t-66.5 -327t-178.5 -269t-268 -179.5t-327 -66.5t-327 66.5t-268 179.5t-178.5 269t-66.5 327zM315 498q0 -145 56 -276.5t151 -226.5t226.5 -151.5t275.5 -56.5 t275.5 56.5t226.5 151.5t151 226.5t56 276.5q0 144 -56 275t-151 226t-226.5 151t-275.5 56t-275.5 -56t-226.5 -151t-151 -226t-56 -275zM535 487q0 136 64.5 251t185.5 185t272 70q104 0 209 -55v57h120v-295h-122v131q-64 35 -99 44.5t-88 9.5q-112 0 -189 -119t-77 -274 q0 -183 81.5 -294.5t207.5 -111.5h21h20.5t18 1t19.5 2.5t18 5t21.5 8t22.5 12t27 16.5v145h123v-219q-111 -49 -180.5 -66.5t-145.5 -17.5q-228 0 -379 145.5t-151 368.5z" />
<glyph unicode="&#xaa;" horiz-adv-x="798" d="M66 766v78h53l235 508h95l227 -508h57v-78h-287v78h46l-41 92h-181l-39 -92h62v-78h-227zM305 1012h113l-51 121z" />
<glyph unicode="&#xab;" horiz-adv-x="1024" d="M4 459l561 393v-84l-243 -309l243 -309v-87zM444 459l562 393v-84l-244 -309l244 -309v-87z" />
<glyph unicode="&#xac;" />
<glyph unicode="&#xad;" horiz-adv-x="563" d="M66 354v230h426v-230h-426z" />
<glyph unicode="&#xae;" horiz-adv-x="2048" d="M184 469q0 171 66.5 327t178.5 269t268 179.5t327 66.5t327 -66.5t268 -179.5t178.5 -269t66.5 -327q0 -114 -30 -223t-84 -201t-131.5 -169.5t-169.5 -132t-201.5 -84.5t-223.5 -30t-223.5 30t-201.5 84.5t-169.5 132t-131.5 169.5t-84 201t-30 223zM315 469 q0 -115 36 -223.5t101.5 -195.5t152.5 -152.5t195.5 -101.5t223.5 -36t223.5 36t195.5 101.5t152.5 152.5t101.5 195.5t36 223.5q0 145 -56 276.5t-151 226.5t-226.5 151.5t-275.5 56.5t-275.5 -56.5t-226.5 -151.5t-151 -226.5t-56 -276.5zM578 0v96h133v762h-133v96h466 q178 0 265.5 -59.5t87.5 -194.5q0 -111 -66 -182t-157 -76l190 -305q11 -17 43 -29t55 -12h37v-96h-299l-239 422h-35v-326h110v-96h-458zM926 506h94q160 0 160 180q0 86 -44.5 125t-138.5 39h-71v-344z" />
<glyph unicode="&#xaf;" horiz-adv-x="831" d="M141 1104v127h557v-127h-557z" />
<glyph unicode="&#xb0;" horiz-adv-x="681" d="M88 1112q0 107 75.5 182.5t182.5 75.5q98 0 169 -71t71 -169q0 -107 -75.5 -182.5t-182.5 -75.5q-100 0 -170 70t-70 170zM209 1120q0 -53 37.5 -91t89.5 -38q54 0 91.5 38t37.5 91q0 54 -37.5 91.5t-91.5 37.5q-53 0 -90 -37.5t-37 -91.5z" />
<glyph unicode="&#xb1;" horiz-adv-x="1126" d="M78 0v168h971v-168h-971zM78 532v168h401v320h168v-320h402v-168h-402v-319h-168v319h-401z" />
<glyph unicode="&#xb2;" horiz-adv-x="827" d="M248 1276q78 68 138 92.5t138 24.5q103 0 164.5 -62t61.5 -174q0 -117 -138 -270l-161 -182h258v73h102v-203h-557v78l205 248q47 58 74.5 126.5t27.5 131.5q0 25 -1.5 41t-8 36.5t-22 31t-40.5 10.5q-69 0 -170 -86z" />
<glyph unicode="&#xb3;" horiz-adv-x="811" d="M223 616l41 111q111 -63 180 -63q55 0 94.5 41t39.5 98q0 66 -34.5 105.5t-88.5 39.5h-107v74q39 20 61 32t48 30t38.5 34.5t21.5 39t9 48.5q0 37 -26.5 60t-53.5 20q-50 -6 -72 -14.5t-69 -40.5l-59 80q69 50 116.5 66t135.5 16q63 0 108.5 -18t67.5 -47.5t31.5 -57.5 t9.5 -56q0 -48 -33 -95.5t-88 -76.5q44 -12 78 -41q86 -65 86 -178q0 -97 -85 -182t-218 -84q-75 0 -124.5 15t-107.5 44z" />
<glyph unicode="&#xb4;" horiz-adv-x="681" d="M125 1083l244 330h225l-326 -330h-143z" />
<glyph unicode="&#xb5;" />
<glyph unicode="&#xb6;" horiz-adv-x="1318" d="M115 999q0 219 144.5 364.5t361.5 145.5h579l2 -112h-160v-1921h-129v1923h-122v-1923h-129v1026h-87q-117 0 -223.5 70.5t-171.5 186t-65 240.5z" />
<glyph unicode="&#xb7;" horiz-adv-x="970" d="M348 492q0 57 40 97t97 40t97.5 -40t40.5 -97t-40.5 -97.5t-97.5 -40.5t-97 40.5t-40 97.5z" />
<glyph unicode="&#xb8;" horiz-adv-x="729" d="M121 -455l59 113q45 -61 109 -61q38 0 67 33t29 77q0 39 -31 65t-67.5 35t-73.5 9l147 161h111l-92 -108q72 -2 120 -43t48 -102q0 -91 -72.5 -148t-189.5 -57q-44 0 -73 4.5t-91 21.5z" />
<glyph unicode="&#xb9;" horiz-adv-x="806" d="M238 1251l350 133l-2 -751h133v-80h-438v80h131v575l-152 -61z" />
<glyph unicode="&#xba;" horiz-adv-x="940" d="M145 1075q0 122 93.5 209.5t232.5 87.5q135 0 229.5 -88.5t94.5 -208.5q0 -123 -94 -212t-230 -89q-139 0 -232.5 88t-93.5 213zM338 1075q0 -97 37.5 -157t95.5 -60q59 0 96 59t37 156t-37.5 156t-95.5 59q-60 0 -96.5 -58t-36.5 -155z" />
<glyph unicode="&#xbb;" horiz-adv-x="1024" d="M0 63v87l242 309l-242 309v84l561 -393zM440 63v87l244 309l-244 309v84l561 -393z" />
<glyph unicode="&#xbc;" horiz-adv-x="1740" d="M98 1251l351 133v-751h133v-80h-439v80h131v575l-151 -61zM174 -94l1180 1501h194l-1179 -1501h-195zM1040 197v75l396 547h67v-506h137v-116h-137v-197h-162v197h-301zM1190 315h151v215z" />
<glyph unicode="&#xbd;" horiz-adv-x="1740" d="M98 1251l351 133v-751h133v-80h-439v80h131v575l-151 -61zM174 -94l1180 1501h194l-1179 -1501h-195zM1157 700q78 67 138 92t139 25q103 0 164 -61.5t61 -173.5q0 -122 -137 -271l-160 -182h256v74h102v-203h-557v78l205 248q47 58 74.5 126.5t27.5 131.5 q0 20 -0.5 32.5t-4.5 30.5t-11 28.5t-21 18.5t-34 8q-69 0 -170 -86z" />
<glyph unicode="&#xbe;" horiz-adv-x="1740" d="M63 616l41 111q111 -63 181 -63q55 0 93 41t38 98q0 67 -34 106t-89 39h-107v74q97 48 138 85t41 99q0 37 -26.5 60t-53.5 20q-50 -6 -73 -14.5t-69 -40.5l-59 80q70 51 117 66.5t135 15.5q63 0 108.5 -18t68 -47t32.5 -57.5t10 -56.5q0 -48 -33.5 -95.5t-89.5 -76.5 q42 -11 80 -41q86 -67 86 -178q0 -97 -85 -182t-218 -84q-75 0 -126 15t-106 44zM174 -94l1180 1501h194l-1179 -1501h-195zM1040 197v75l396 547h67v-506h137v-116h-137v-197h-162v197h-301zM1190 315h151v215z" />
<glyph unicode="&#xbf;" horiz-adv-x="813" d="M176 301q0 96 51.5 161.5t120.5 65.5h37l18 115h91v-254h-179q-22 -50 -22 -88q0 -66 71.5 -106.5t260.5 -83.5l-74 -205q-88 25 -141.5 49t-100.5 61q-64 49 -98.5 123t-34.5 162zM328 858q-1 49 33.5 85t84.5 36q49 0 83 -34.5t34 -82.5q0 -50 -34 -84.5t-83 -34.5 q-48 0 -83 34t-35 81z" />
<glyph unicode="&#xc0;" horiz-adv-x="1376" d="M0 0v86h127l528 1309h125l508 -1309h86v-86h-500v86h144l-127 332h-498l-133 -332h164v-86h-424zM346 1776h225l244 -330h-145zM442 543h402l-195 512z" />
<glyph unicode="&#xc1;" horiz-adv-x="1376" d="M0 0v86h127l528 1309h125l508 -1309h86v-86h-500v86h144l-127 332h-498l-133 -332h164v-86h-424zM442 543h402l-195 512zM465 1409l244 330h223l-324 -330h-143z" />
<glyph unicode="&#xc2;" horiz-adv-x="1376" d="M0 0v86h127l528 1309h125l508 -1309h86v-86h-500v86h144l-127 332h-498l-133 -332h164v-86h-424zM434 1436l230 338h122l222 -338h-107l-176 180l-174 -180h-117zM442 543h402l-195 512z" />
<glyph unicode="&#xc3;" horiz-adv-x="1376" d="M0 0v86h127l528 1309h125l508 -1309h86v-86h-500v86h144l-127 332h-498l-133 -332h164v-86h-424zM348 1579q72 86 132 123t126 37q62 0 96 -19l78 -49q55 -35 127 -35q50 0 75 13t77 65l59 -63q-73 -89 -133.5 -123.5t-140.5 -34.5q-91 0 -162 47q-53 36 -71 43.5 t-48 7.5q-41 0 -77 -17.5t-78 -60.5zM442 543h402l-195 512z" />
<glyph unicode="&#xc4;" horiz-adv-x="1376" d="M0 0v86h127l528 1309h125l508 -1309h86v-86h-500v86h144l-127 332h-498l-133 -332h164v-86h-424zM416 1487q0 50 35 85.5t86 35.5q49 0 83.5 -35.5t34.5 -85.5q0 -51 -34 -86t-84 -35q-51 0 -86 35t-35 86zM442 543h402l-195 512zM774 1487q0 50 35 85.5t86 35.5 q49 0 84 -35.5t35 -85.5q0 -51 -34.5 -86t-84.5 -35q-51 0 -86 35t-35 86z" />
<glyph unicode="&#xc5;" horiz-adv-x="1376" d="M0 0v86h127l528 1309h125l508 -1309h86v-86h-500v86h144l-127 332h-498l-133 -332h164v-86h-424zM442 543h402l-195 512zM537 1642q0 75 53 128t127 53q75 0 127.5 -53t52.5 -128q0 -74 -52.5 -127t-127.5 -53q-73 0 -126.5 53t-53.5 127zM623 1642q0 -38 28 -66t66 -28 q39 0 66.5 27.5t27.5 66.5q0 40 -27.5 68.5t-66.5 28.5q-38 0 -66 -28.5t-28 -68.5z" />
<glyph unicode="&#xc6;" horiz-adv-x="1806" d="M0 0v86h121l624 1176h-163v90h981v49h112v-328h-112v158h-428v-488h333v142h111v-404h-111v142h-333v-502h448l2 147h109v-268h-977v86h153v326h-446l-172 -326h158v-86h-410zM492 539h378v716z" />
<glyph unicode="&#xc7;" horiz-adv-x="1366" d="M86 672q0 149 55 279.5t150 224t228.5 147t285.5 53.5q100 0 177.5 -15.5t166.5 -53.5v86h113v-367h-113v131q-87 61 -148 83t-143 22q-214 0 -348.5 -161.5t-134.5 -416.5q0 -164 66 -299.5t181.5 -213t254.5 -77.5q76 0 138 18.5t134 63.5v156h115v-273 q-127 -46 -221 -65.5t-203 -20.5l-88 -120q71 -8 112 -50t41 -106q0 -82 -76 -141.5t-180 -59.5q-72 0 -172 39l68 105q32 -34 52.5 -46t45.5 -12q43 0 72.5 31.5t29.5 75.5q0 67 -44 91.5t-117 24.5l133 175q-282 34 -456.5 223.5t-174.5 468.5z" />
<glyph unicode="&#xc8;" horiz-adv-x="1189" d="M102 0v86h156v1180h-156v86h844v57h111v-326h-109v148h-426v-483h328v139l111 2v-404l-111 -2v144h-328v-506h445v151h110v-272h-975zM176 1726h225l244 -329h-145z" />
<glyph unicode="&#xc9;" horiz-adv-x="1189" d="M102 0v86h156v1180h-156v86h844v57h111v-326h-109v148h-426v-483h328v139l111 2v-404l-111 -2v144h-328v-506h445v151h110v-272h-975zM391 1405l244 330h225l-325 -330h-144z" />
<glyph unicode="&#xca;" horiz-adv-x="1189" d="M102 0v86h156v1180h-156v86h844v57h111v-326h-109v148h-426v-483h328v139l111 2v-404l-111 -2v144h-328v-506h445v151h110v-272h-975zM289 1485l231 338h123l219 -338h-106l-174 180l-176 -180h-117z" />
<glyph unicode="&#xcb;" horiz-adv-x="1189" d="M102 0v86h156v1180h-156v86h844v57h111v-326h-109v148h-426v-483h328v139l111 2v-404l-111 -2v144h-328v-506h445v151h110v-272h-975zM254 1589q0 51 35.5 86t85.5 35t85.5 -35t35.5 -86q0 -49 -35.5 -84t-85.5 -35t-85.5 35t-35.5 84zM629 1589q0 51 35.5 86t85.5 35 q51 0 85.5 -35t34.5 -86q0 -50 -34.5 -84.5t-85.5 -34.5q-50 0 -85.5 35t-35.5 84z" />
<glyph unicode="&#xcc;" horiz-adv-x="761" d="M53 1735h226l243 -330h-145zM94 0v86h156v1180h-156v86h574v-86h-154v-1180h154v-86h-574z" />
<glyph unicode="&#xcd;" horiz-adv-x="761" d="M94 0v86h156v1180h-156v86h574v-86h-154v-1180h154v-86h-574zM229 1405l244 330h225l-325 -330h-144z" />
<glyph unicode="&#xce;" horiz-adv-x="761" d="M94 0v86h156v1180h-156v86h574v-86h-154v-1180h154v-86h-574zM96 1466l230 338h125l219 -338h-107l-176 181l-174 -181h-117z" />
<glyph unicode="&#xcf;" horiz-adv-x="761" d="M94 0v86h156v1180h-156v86h574v-86h-154v-1180h154v-86h-574zM94 1536q0 50 35 85.5t86 35.5q49 0 84 -35.5t35 -85.5q0 -51 -34.5 -86t-84.5 -35q-51 0 -86 35t-35 86zM453 1536q0 50 34.5 85.5t85.5 35.5q49 0 85 -35.5t36 -85.5q0 -51 -35.5 -86t-85.5 -35 q-51 0 -85.5 35t-34.5 86z" />
<glyph unicode="&#xd0;" horiz-adv-x="1515" d="M-29 649v121h287v496h-156v86h639q191 0 349 -89t249 -243.5t91 -341.5q0 -141 -56 -270t-160 -230q-97 -92 -211 -135t-264 -43h-637v86h156v563h-287zM522 113h166q127 0 231 73.5t163 203t59 288.5q0 148 -60.5 277t-163.5 205.5t-221 76.5h-174v-467h320v-121h-320 v-536z" />
<glyph unicode="&#xd1;" horiz-adv-x="1509" d="M68 1266v86h407l664 -944v858h-162v86h463v-86h-172v-1289h-144l-712 1004v-895h161v-86h-462v86h170v1075l-66 105h-147zM352 1522q71 87 132 124t128 37q65 0 97 -18l77 -49q52 -35 125 -35q51 0 76 12.5t76 63.5l59 -64q-74 -88 -133 -121.5t-141 -33.5q-89 0 -160 47 q-55 36 -73 43.5t-48 7.5q-40 0 -75.5 -18t-79.5 -60z" />
<glyph unicode="&#xd2;" horiz-adv-x="1521" d="M86 676q0 144 53 274t143 223t215.5 148t264.5 55t264.5 -55t216 -148t144 -223t53.5 -274t-53.5 -274.5t-144 -224t-216 -149t-264.5 -55.5t-264.5 55.5t-215.5 149t-143 224t-53 274.5zM326 1733h225l244 -330h-144zM375 676q0 -153 53.5 -288.5t143 -216.5t190.5 -81 q102 0 192 81t143.5 216.5t53.5 288.5q0 152 -53.5 287t-144 216t-191.5 81t-190.5 -81t-143 -216t-53.5 -287z" />
<glyph unicode="&#xd3;" horiz-adv-x="1521" d="M86 676q0 144 53 274t143 223t215.5 148t264.5 55t264.5 -55t216 -148t144 -223t53.5 -274t-53.5 -274.5t-144 -224t-216 -149t-264.5 -55.5t-264.5 55.5t-215.5 149t-143 224t-53 274.5zM375 676q0 -153 53.5 -288.5t143 -216.5t190.5 -81q102 0 192 81t143.5 216.5 t53.5 288.5q0 152 -53.5 287t-144 216t-191.5 81t-190.5 -81t-143 -216t-53.5 -287zM518 1407l244 330h225l-325 -330h-144z" />
<glyph unicode="&#xd4;" horiz-adv-x="1521" d="M86 676q0 144 53 274t143 223t215.5 148t264.5 55t264.5 -55t216 -148t144 -223t53.5 -274t-53.5 -274.5t-144 -224t-216 -149t-264.5 -55.5t-264.5 55.5t-215.5 149t-143 224t-53 274.5zM375 676q0 -153 53.5 -288.5t143 -216.5t190.5 -81q102 0 192 81t143.5 216.5 t53.5 288.5q0 152 -53.5 287t-144 216t-191.5 81t-190.5 -81t-143 -216t-53.5 -287zM465 1468l231 338h123l219 -338h-106l-174 181l-176 -181h-117z" />
<glyph unicode="&#xd5;" horiz-adv-x="1521" d="M86 676q0 144 53 274t143 223t215.5 148t264.5 55t264.5 -55t216 -148t144 -223t53.5 -274t-53.5 -274.5t-144 -224t-216 -149t-264.5 -55.5t-264.5 55.5t-215.5 149t-143 224t-53 274.5zM375 676q0 -153 53.5 -288.5t143 -216.5t190.5 -81q102 0 192 81t143.5 216.5 t53.5 288.5q0 152 -53.5 287t-144 216t-191.5 81t-190.5 -81t-143 -216t-53.5 -287zM387 1540q71 87 132 124.5t128 37.5q62 0 96 -19l78 -49q55 -35 125 -35q51 0 76 12.5t78 63.5l57 -63q-73 -88 -133 -122t-139 -34q-91 0 -162 47q-55 36 -72.5 43.5t-46.5 7.5 q-42 0 -77.5 -17.5t-77.5 -59.5z" />
<glyph unicode="&#xd6;" horiz-adv-x="1521" d="M86 676q0 144 53 274t143 223t215.5 148t264.5 55t264.5 -55t216 -148t144 -223t53.5 -274t-53.5 -274.5t-144 -224t-216 -149t-264.5 -55.5t-264.5 55.5t-215.5 149t-143 224t-53 274.5zM348 1540q0 51 35.5 86t85.5 35q51 0 86 -35t35 -86q0 -50 -35 -84.5t-86 -34.5 q-50 0 -85.5 35t-35.5 84zM375 676q0 -153 53.5 -288.5t143 -216.5t190.5 -81q102 0 192 81t143.5 216.5t53.5 288.5q0 152 -53.5 287t-144 216t-191.5 81t-190.5 -81t-143 -216t-53.5 -287zM930 1540q0 51 35 86t86 35q50 0 84 -35t34 -86q0 -50 -34.5 -84.5t-83.5 -34.5 q-51 0 -86 34.5t-35 84.5z" />
<glyph unicode="&#xd7;" horiz-adv-x="1126" d="M63 82l381 381l-381 381l119 119l381 -381l381 381l119 -119l-381 -381l381 -381l-119 -119l-381 381l-381 -381z" />
<glyph unicode="&#xd8;" horiz-adv-x="1529" d="M72 -49l202 233q-190 190 -190 484q0 146 53 275.5t143.5 222t217.5 146.5t270 54q119 0 207 -31t205 -114l202 239l76 -67l-209 -236q193 -199 193 -487q0 -189 -90.5 -349.5t-246.5 -254t-339 -93.5q-231 0 -422 148l-199 -236zM371 670q0 -78 12 -138t49 -165l608 698 q-114 184 -276 184q-102 0 -193 -80.5t-145.5 -214.5t-54.5 -284zM481 274q134 -186 283 -186q99 0 189 81t144 215.5t54 283.5q0 81 -12 141.5t-49 165.5z" />
<glyph unicode="&#xd9;" horiz-adv-x="1597" d="M102 1266v86h574v-86h-154v-764q0 -155 32 -235.5t110 -121.5q76 -39 170 -39q184 0 286.5 104t102.5 292v762h-170v88h475v-86h-172v-770q0 -174 -62 -286t-192 -173q-140 -64 -297 -64q-249 0 -398 126.5t-149 338.5v828h-156zM416 1726h225l242 -329h-144z" />
<glyph unicode="&#xda;" horiz-adv-x="1597" d="M102 1266v86h574v-86h-154v-764q0 -155 32 -235.5t110 -121.5q76 -39 170 -39q184 0 286.5 104t102.5 292v762h-170v88h475v-86h-172v-770q0 -174 -62 -286t-192 -173q-140 -64 -297 -64q-249 0 -398 126.5t-149 338.5v828h-156zM653 1393l244 329h225l-325 -329h-144z " />
<glyph unicode="&#xdb;" horiz-adv-x="1597" d="M102 1266v86h574v-86h-154v-764q0 -155 32 -235.5t110 -121.5q76 -39 170 -39q184 0 286.5 104t102.5 292v762h-170v88h475v-86h-172v-770q0 -174 -62 -286t-192 -173q-140 -64 -297 -64q-249 0 -398 126.5t-149 338.5v828h-156zM567 1489l232 338h123l219 -338h-107 l-174 180l-176 -180h-117z" />
<glyph unicode="&#xdc;" horiz-adv-x="1597" d="M102 1266v86h574v-86h-154v-764q0 -155 32 -235.5t110 -121.5q76 -39 170 -39q184 0 286.5 104t102.5 292v762h-170v88h475v-86h-172v-770q0 -174 -62 -286t-192 -173q-140 -64 -297 -64q-249 0 -398 126.5t-149 338.5v828h-156zM424 1542q0 51 35.5 86t85.5 35t85.5 -35 t35.5 -86q0 -49 -35.5 -84t-85.5 -35t-85.5 35t-35.5 84zM961 1542q0 51 34.5 86t85.5 35q50 0 84.5 -35t34.5 -86q0 -50 -35 -84.5t-84 -34.5q-51 0 -85.5 34.5t-34.5 84.5z" />
<glyph unicode="&#xdd;" horiz-adv-x="1253" d="M-16 1266v86h573v-86h-151l290 -449l273 449h-174v86h477v-86h-148l-342 -561v-619h156v-86h-573v86h153v565l-405 615h-129zM557 1405l244 330h225l-326 -330h-143z" />
<glyph unicode="&#xde;" horiz-adv-x="1228" d="M102 0v86h156v1180h-156v86h574v-88h-152v-172h199q191 0 305.5 -106.5t114.5 -283.5q0 -167 -128 -287t-308 -120q-47 0 -111 12v101q32 -7 55 -7q104 0 160.5 73.5t56.5 209.5q0 145 -56.5 219t-166.5 74h-123v-891h174v-86h-594z" />
<glyph unicode="&#xdf;" horiz-adv-x="1662" d="M96 707q0 107 103.5 185.5t230.5 78.5q113 0 197 -47v51h96v-266h-96v102q-13 7 -33.5 18.5t-27.5 15t-19 9t-19.5 6.5t-18 2.5t-24.5 1.5q-74 0 -111.5 -27.5t-37.5 -88.5q0 -42 24 -78t62 -64t84 -55t92 -57t84 -64t62 -81.5t24 -104.5q0 -113 -99 -192t-229 -79 q-110 0 -231 68v-53h-96v276h96v-106q84 -50 110 -59q29 -9 68 -9q76 0 110.5 28.5t34.5 88.5q0 45 -32.5 86t-80.5 70.5t-105 65.5t-105 71.5t-80.5 89.5t-32.5 117zM940 707q0 107 103.5 185.5t230.5 78.5q112 0 196 -47v51h97v-266h-97v102q-14 8 -33.5 18.5t-27 14.5 t-19 9.5t-19 6.5t-18 2.5t-24.5 1.5q-74 0 -111.5 -27.5t-37.5 -88.5q0 -42 24 -78t62 -64t84 -55t92 -57t84 -64t62 -81.5t24 -104.5q0 -113 -99 -192t-229 -79q-110 0 -231 68v-53h-97v276h97v-106q84 -50 110 -59q29 -9 68 -9q76 0 110.5 28.5t34.5 88.5q0 45 -32.5 86 t-80.5 70.5t-105 65.5t-105 71.5t-80.5 89.5t-32.5 117z" />
<glyph unicode="&#xe0;" horiz-adv-x="995" d="M-27 0v86h78l393 891h125l377 -891h86v-86h-426v86h90l-92 213h-332l-88 -213h117v-86h-328zM160 1411h223l244 -330h-144zM307 379h264l-122 305z" />
<glyph unicode="&#xe1;" horiz-adv-x="995" d="M-27 0v86h78l393 891h125l377 -891h86v-86h-426v86h90l-92 213h-332l-88 -213h117v-86h-328zM307 379h264l-122 305zM346 1083l244 330h223l-324 -330h-143z" />
<glyph unicode="&#xe2;" horiz-adv-x="995" d="M-27 0v86h78l393 891h125l377 -891h86v-86h-426v86h90l-92 213h-332l-88 -213h117v-86h-328zM223 1083l230 338h122l222 -338h-107l-176 181l-174 -181h-117zM307 379h264l-122 305z" />
<glyph unicode="&#xe3;" horiz-adv-x="995" d="M-27 0v86h78l393 891h125l377 -891h86v-86h-426v86h90l-92 213h-332l-88 -213h117v-86h-328zM109 1141q72 87 132 124.5t128 37.5q64 0 94 -19l78 -49q55 -35 127 -35q49 0 73.5 12.5t77.5 63.5l60 -64q-73 -88 -133 -121.5t-142 -33.5q-91 0 -162 47q-53 36 -70.5 43.5 t-47.5 7.5q-41 0 -76.5 -17.5t-79.5 -60.5zM307 379h264l-122 305z" />
<glyph unicode="&#xe4;" horiz-adv-x="995" d="M-27 0v86h78l393 891h125l377 -891h86v-86h-426v86h90l-92 213h-332l-88 -213h117v-86h-328zM207 1174q0 51 35.5 85.5t85.5 34.5q51 0 86 -34.5t35 -85.5q0 -50 -35 -85.5t-86 -35.5q-50 0 -85.5 35.5t-35.5 85.5zM307 379h264l-122 305zM565 1174q0 51 35.5 85.5 t85.5 34.5q51 0 86 -34.5t35 -85.5q0 -50 -35 -85.5t-86 -35.5q-50 0 -85.5 35.5t-35.5 85.5z" />
<glyph unicode="&#xe5;" horiz-adv-x="995" d="M-27 0v86h78l393 891h125l377 -891h86v-86h-426v86h90l-92 213h-332l-88 -213h117v-86h-328zM307 379h264l-122 305zM326 1202q0 75 53 127.5t127 52.5q75 0 127.5 -52.5t52.5 -127.5q0 -74 -52.5 -127t-127.5 -53q-74 0 -127 53t-53 127zM412 1202q0 -38 28 -66t66 -28 q40 0 68 28t28 66q0 40 -28 67t-68 27q-39 0 -66.5 -27.5t-27.5 -66.5z" />
<glyph unicode="&#xe6;" horiz-adv-x="1402" d="M-27 0v76h97l497 784l-116 2v84h741v41h86v-229h-84v96h-274v-322h202v89h84v-283h-84v92h-202v-338h288v98h84v-190h-774v86h152v203h-330l-131 -213h117v-76h-353zM399 389h271v416z" />
<glyph unicode="&#xe7;" horiz-adv-x="1046" d="M72 471q0 144 76.5 259.5t207 179t289.5 63.5q66 0 117.5 -13.5t124.5 -48.5v64h94v-275h-94v101q-63 45 -117.5 60.5t-128.5 15.5q-100 0 -170 -57.5t-100.5 -143.5t-30.5 -189q0 -190 84 -303.5t246 -113.5q58 0 103 10.5t112 46.5l2 125h94v-211q-145 -62 -303 -68 l-88 -120q71 -8 112 -50t41 -106q0 -82 -76 -141.5t-180 -59.5q-72 0 -172 39l68 105q32 -34 52.5 -46t45.5 -12q43 0 73 31.5t30 75.5q0 67 -44.5 91.5t-117.5 24.5l133 172q-208 25 -345.5 162t-137.5 332z" />
<glyph unicode="&#xe8;" horiz-adv-x="991" d="M106 0v86h154v774h-154v86h674v41h86v-229h-84v96h-274v-322h201v89l86 2v-285h-86v92h-201v-338h287v98h86v-190h-775zM156 1413h225l244 -330h-144z" />
<glyph unicode="&#xe9;" horiz-adv-x="991" d="M106 0v86h154v774h-154v86h674v41h86v-229h-84v96h-274v-322h201v89l86 2v-285h-86v92h-201v-338h287v98h86v-190h-775zM319 1083l244 330h223l-323 -330h-144z" />
<glyph unicode="&#xea;" horiz-adv-x="991" d="M106 0v86h154v774h-154v86h674v41h86v-229h-84v96h-274v-322h201v89l86 2v-285h-86v92h-201v-338h287v98h86v-190h-775zM188 1083l230 338h125l219 -338h-107l-176 181l-174 -181h-117z" />
<glyph unicode="&#xeb;" horiz-adv-x="991" d="M106 0v86h154v774h-154v86h674v41h86v-229h-84v96h-274v-322h201v89l86 2v-285h-86v92h-201v-338h287v98h86v-190h-775zM172 1171q0 51 35.5 86t85.5 35q51 0 86 -35t35 -86q0 -50 -35 -84t-86 -34q-50 0 -85.5 34.5t-35.5 83.5zM530 1171q0 51 35.5 86t85.5 35 q51 0 86 -35t35 -86q0 -50 -35 -84t-86 -34q-50 0 -85.5 34.5t-35.5 83.5z" />
<glyph unicode="&#xec;" horiz-adv-x="737" d="M43 1413h225l244 -330h-145zM96 0v86h154v774h-154v86h555v-86h-153v-774h153v-86h-555z" />
<glyph unicode="&#xed;" horiz-adv-x="737" d="M96 0v86h154v774h-154v86h555v-86h-153v-774h153v-86h-555zM246 1083l243 330h224l-324 -330h-143z" />
<glyph unicode="&#xee;" horiz-adv-x="737" d="M90 1083l229 338h123l222 -338h-107l-176 181l-174 -181h-117zM96 0v86h154v774h-154v86h555v-86h-153v-774h153v-86h-555z" />
<glyph unicode="&#xef;" horiz-adv-x="737" d="M94 1171q0 51 35 86t86 35q50 0 85.5 -35t35.5 -86q0 -49 -35.5 -83.5t-85.5 -34.5q-51 0 -86 34t-35 84zM96 0v86h154v774h-154v86h555v-86h-153v-774h153v-86h-555zM410 1171q0 51 34.5 86t85.5 35q50 0 84.5 -35t34.5 -86q0 -49 -34.5 -83.5t-84.5 -34.5 q-51 0 -85.5 34t-34.5 84z" />
<glyph unicode="&#xf0;" horiz-adv-x="1220" d="M33 457v121h227v282h-154v86h609q136 0 243 -63t164.5 -170.5t57.5 -239.5q0 -205 -132.5 -339t-342.5 -134h-599v86h154v371h-227zM508 92h98q141 0 228.5 106t87.5 273t-87 275t-227 108h-100v-276h237v-121h-237v-365z" />
<glyph unicode="&#xf1;" horiz-adv-x="1337" d="M109 860v86h325l524 -606v520h-145v86h432v-86h-153v-876h-123l-543 645v-543h145v-86h-432v86h154v721l-41 53h-143zM281 1141q73 87 133.5 124.5t126.5 37.5q62 0 96 -19l78 -49q55 -35 125 -35q51 0 75.5 12.5t77.5 63.5l58 -64q-73 -87 -133 -121t-140 -34 q-91 0 -162 47q-55 36 -72 43.5t-46 7.5q-42 0 -78 -18t-78 -60z" />
<glyph unicode="&#xf2;" horiz-adv-x="1175" d="M72 475q0 132 66 245.5t185.5 182t266.5 68.5q106 0 202 -40.5t164 -108t108 -158.5t40 -189q0 -99 -39.5 -191t-107 -160.5t-164 -109.5t-203.5 -41q-147 0 -266.5 69t-185.5 184t-66 249zM268 1413h226l243 -330h-143zM340 475q0 -176 68.5 -290.5t179.5 -114.5 q115 0 182.5 113t67.5 290q0 174 -69 287.5t-181 113.5q-114 0 -181 -112t-67 -287z" />
<glyph unicode="&#xf3;" horiz-adv-x="1175" d="M72 475q0 132 66 245.5t185.5 182t266.5 68.5q106 0 202 -40.5t164 -108t108 -158.5t40 -189q0 -99 -39.5 -191t-107 -160.5t-164 -109.5t-203.5 -41q-147 0 -266.5 69t-185.5 184t-66 249zM340 475q0 -176 68.5 -290.5t179.5 -114.5q115 0 182.5 113t67.5 290 q0 174 -69 287.5t-181 113.5q-114 0 -181 -112t-67 -287zM453 1083l243 330h226l-326 -330h-143z" />
<glyph unicode="&#xf4;" horiz-adv-x="1175" d="M72 475q0 132 66 245.5t185.5 182t266.5 68.5q106 0 202 -40.5t164 -108t108 -158.5t40 -189q0 -99 -39.5 -191t-107 -160.5t-164 -109.5t-203.5 -41q-147 0 -266.5 69t-185.5 184t-66 249zM293 1083l231 338h123l219 -338h-106l-174 181l-176 -181h-117zM340 475 q0 -176 68.5 -290.5t179.5 -114.5q115 0 182.5 113t67.5 290q0 174 -69 287.5t-181 113.5q-114 0 -181 -112t-67 -287z" />
<glyph unicode="&#xf5;" horiz-adv-x="1175" d="M72 475q0 132 66 245.5t185.5 182t266.5 68.5q106 0 202 -40.5t164 -108t108 -158.5t40 -189q0 -99 -39.5 -191t-107 -160.5t-164 -109.5t-203.5 -41q-147 0 -266.5 69t-185.5 184t-66 249zM203 1141q71 87 132 124.5t128 37.5q62 0 96 -19l78 -49q52 -35 125 -35 q51 0 75.5 12.5t77.5 63.5l58 -64q-73 -88 -133 -121.5t-142 -33.5q-88 0 -159 47q-55 36 -72.5 43.5t-46.5 7.5q-42 0 -78 -18t-78 -60zM340 475q0 -176 68.5 -290.5t179.5 -114.5q115 0 182.5 113t67.5 290q0 174 -69 287.5t-181 113.5q-114 0 -181 -112t-67 -287z" />
<glyph unicode="&#xf6;" horiz-adv-x="1175" d="M72 475q0 132 66 245.5t185.5 182t266.5 68.5q106 0 202 -40.5t164 -108t108 -158.5t40 -189q0 -99 -39.5 -191t-107 -160.5t-164 -109.5t-203.5 -41q-147 0 -266.5 69t-185.5 184t-66 249zM287 1171q0 50 35 84.5t86 34.5q49 0 83.5 -34.5t34.5 -84.5q0 -51 -34 -85.5 t-84 -34.5q-51 0 -86 34.5t-35 85.5zM340 475q0 -176 68.5 -290.5t179.5 -114.5q115 0 182.5 113t67.5 290q0 174 -69 287.5t-181 113.5q-114 0 -181 -112t-67 -287zM645 1171q0 50 35 84.5t86 34.5q50 0 84.5 -35t34.5 -84q0 -51 -34.5 -85.5t-84.5 -34.5q-51 0 -86 34.5 t-35 85.5z" />
<glyph unicode="&#xf7;" horiz-adv-x="1126" d="M51 426v117h1024v-117h-1024zM446 98q0 50 35 84.5t86 34.5q49 0 84 -34.5t35 -84.5q0 -51 -34.5 -86t-84.5 -35q-51 0 -86 35t-35 86zM446 874q0 51 35 86t86 35q50 0 84.5 -35t34.5 -86q0 -49 -34.5 -83.5t-84.5 -34.5q-51 0 -86 34t-35 84z" />
<glyph unicode="&#xf8;" horiz-adv-x="1175" d="M72 475q0 132 66 245.5t185.5 182t266.5 68.5q160 0 291 -88l139 161l61 -51l-137 -159q75 -70 117.5 -164t42.5 -195q0 -99 -39.5 -191t-107 -160.5t-164 -109.5t-203.5 -41q-172 0 -307 95l-125 -146l-60 53l123 144q-71 70 -110 162t-39 194zM340 475q0 -101 25 -190 l407 471q-72 118 -184 118q-114 0 -181 -112t-67 -287zM399 201q69 -131 189 -131q115 0 182.5 113t67.5 290q0 112 -31 203z" />
<glyph unicode="&#xf9;" horiz-adv-x="1269" d="M61 860v86h527v-86h-125v-510q0 -137 57 -199.5t172 -62.5q114 0 174 69t60 195v508h-123v86h411v-86h-153v-514q0 -165 -114 -269t-290 -104q-85 0 -161.5 19.5t-140 58.5t-101 105t-37.5 151v553h-156zM328 1413h225l244 -330h-144z" />
<glyph unicode="&#xfa;" horiz-adv-x="1269" d="M61 860v86h527v-86h-125v-510q0 -137 57 -199.5t172 -62.5q114 0 174 69t60 195v508h-123v86h411v-86h-153v-514q0 -165 -114 -269t-290 -104q-85 0 -161.5 19.5t-140 58.5t-101 105t-37.5 151v553h-156zM528 1083l242 330h225l-323 -330h-144z" />
<glyph unicode="&#xfb;" horiz-adv-x="1269" d="M61 860v86h527v-86h-125v-510q0 -137 57 -199.5t172 -62.5q114 0 174 69t60 195v508h-123v86h411v-86h-153v-514q0 -165 -114 -269t-290 -104q-85 0 -161.5 19.5t-140 58.5t-101 105t-37.5 151v553h-156zM362 1083l230 338h125l219 -338h-107l-176 181l-174 -181h-117z " />
<glyph unicode="&#xfc;" horiz-adv-x="1269" d="M61 860v86h527v-86h-125v-510q0 -137 57 -199.5t172 -62.5q114 0 174 69t60 195v508h-123v86h411v-86h-153v-514q0 -165 -114 -269t-290 -104q-85 0 -161.5 19.5t-140 58.5t-101 105t-37.5 151v553h-156zM322 1174q0 51 35 85.5t85 34.5t85.5 -34.5t35.5 -85.5 q0 -49 -35.5 -84t-85.5 -35t-85 35t-35 84zM727 1171q0 51 35.5 86t85.5 35q51 0 86 -35t35 -86q0 -50 -35 -84t-86 -34q-50 0 -85.5 34.5t-35.5 83.5z" />
<glyph unicode="&#xfd;" horiz-adv-x="927" d="M-27 864v82h463v-82h-92l199 -315l192 315h-112v82h344v-82h-99l-270 -438v-340h156v-86h-537v86h156v350l-293 428h-107zM420 1083l244 330h223l-324 -330h-143z" />
<glyph unicode="&#xfe;" horiz-adv-x="1005" d="M76 0v86h153v774h-153v86h538v-88h-145v-119h164q140 0 234 -75.5t94 -200.5q0 -128 -98 -212.5t-242 -84.5q-24 0 -76 8v66q36 -4 41 -4q54 0 87.5 61.5t33.5 155.5q0 101 -41 150.5t-131 49.5h-58v-567h123v-86h-524z" />
<glyph unicode="&#xff;" horiz-adv-x="927" d="M-27 864v82h463v-82h-92l199 -315l192 315h-112v82h344v-82h-99l-270 -438v-340h156v-86h-537v86h156v350l-293 428h-107zM154 1184q0 51 34 86t84 35q51 0 86 -35t35 -86q0 -50 -35 -84.5t-86 -34.5q-49 0 -83.5 34.5t-34.5 84.5zM618 1188q0 51 35 86t86 35 q50 0 84.5 -35t34.5 -86q0 -50 -35 -84.5t-84 -34.5q-51 0 -86 34.5t-35 84.5z" />
<glyph unicode="&#x152;" horiz-adv-x="1949" d="M84 676q0 187 91.5 348t247.5 255.5t337 94.5q28 0 102 -6q163 -16 228 -16h610v53h110v-328h-110v148h-428v-477h330v139h116v-406h-116v146h-330v-506h448v155h115v-276h-745q-99 0 -216 -16q-94 -11 -122 -11q-181 0 -335 94.5t-243.5 256.5t-89.5 352zM375 670 q0 -157 54 -290.5t146.5 -211.5t202.5 -78q129 0 179.5 37.5t50.5 132.5v852q0 69 -52.5 106t-152.5 37q-98 0 -166 -36.5t-131 -122.5q-131 -180 -131 -426z" />
<glyph unicode="&#x153;" horiz-adv-x="1511" d="M72 475q0 136 70.5 250.5t188 179t253.5 64.5q28 0 145 -15q63 -8 156 -8h415v41h86v-229h-83v96h-275v-322h201v89l86 2v-285h-86v92h-201v-338h287v98h86v-190h-545q-86 0 -147 -10q-86 -13 -140 -13q-93 0 -181.5 35.5t-159 98.5t-113.5 158t-43 206zM340 477 q0 -111 25.5 -200t85.5 -148t147 -59q26 0 54 11t58.5 36t50 76.5t19.5 121.5v379q0 54 -34.5 97.5t-74 63t-67.5 19.5q-128 0 -196 -108t-68 -289z" />
<glyph unicode="&#x178;" horiz-adv-x="1253" d="M-16 1266v86h573v-86h-151l290 -449l273 449h-174v86h477v-86h-148l-342 -561v-619h156v-86h-573v86h153v565l-405 615h-129zM311 1538q0 51 34.5 86t84.5 35q51 0 86 -35t35 -86q0 -50 -35 -84.5t-86 -34.5q-50 0 -84.5 34.5t-34.5 84.5zM776 1542q0 51 35 86t86 35 q50 0 84.5 -35t34.5 -86q0 -50 -35 -84.5t-84 -34.5q-51 0 -86 34.5t-35 84.5z" />
<glyph unicode="&#x2c6;" horiz-adv-x="692" d="M80 1014l227 338h90l221 -338h-90l-174 178l-176 -178h-98z" />
<glyph unicode="&#x2dc;" horiz-adv-x="929" d="M68 1128q64 84 123 121t128 37q63 0 93 -20l77 -47q58 -37 125 -37q51 0 76.5 13t77.5 65l49 -33q-74 -90 -128.5 -122t-133.5 -32q-90 0 -164 49q-51 35 -69.5 42t-51.5 7q-41 0 -76 -17t-79 -60z" />
<glyph unicode="&#x2000;" horiz-adv-x="913" />
<glyph unicode="&#x2001;" horiz-adv-x="1827" />
<glyph unicode="&#x2002;" horiz-adv-x="913" />
<glyph unicode="&#x2003;" horiz-adv-x="1827" />
<glyph unicode="&#x2004;" horiz-adv-x="609" />
<glyph unicode="&#x2005;" horiz-adv-x="456" />
<glyph unicode="&#x2006;" horiz-adv-x="304" />
<glyph unicode="&#x2007;" horiz-adv-x="304" />
<glyph unicode="&#x2008;" horiz-adv-x="228" />
<glyph unicode="&#x2009;" horiz-adv-x="365" />
<glyph unicode="&#x200a;" horiz-adv-x="101" />
<glyph unicode="&#x2010;" horiz-adv-x="563" d="M66 354v230h426v-230h-426z" />
<glyph unicode="&#x2011;" horiz-adv-x="563" d="M66 354v230h426v-230h-426z" />
<glyph unicode="&#x2012;" horiz-adv-x="563" d="M66 354v230h426v-230h-426z" />
<glyph unicode="&#x2013;" horiz-adv-x="1126" d="M51 393v166h1024v-166h-1024z" />
<glyph unicode="&#x2014;" horiz-adv-x="2048" d="M0 391v168h2048v-168h-2048z" />
<glyph unicode="&#x2018;" d="M104 1022q0 169 222 354l84 -78q-71 -60 -101 -103.5t-30 -86.5q0 -44 23.5 -70t80.5 -45q-25 -63 -57 -89.5t-84 -26.5q-63 0 -100.5 39t-37.5 106z" />
<glyph unicode="&#x2019;" d="M88 956q70 58 100.5 103t30.5 88t-24 69.5t-80 43.5q25 64 56.5 90t84.5 26q63 0 100 -38.5t37 -104.5q0 -169 -221 -356z" />
<glyph unicode="&#x201a;" d="M94 -207q72 58 102.5 102.5t30.5 88.5q0 43 -24.5 69t-81.5 43q26 65 57.5 91t83.5 26q64 0 100.5 -38.5t36.5 -104.5q0 -170 -221 -357z" />
<glyph unicode="&#x201c;" horiz-adv-x="837" d="M113 1018q0 169 221 356l82 -80q-71 -59 -101 -102.5t-30 -87.5q0 -43 24.5 -68.5t81.5 -44.5q-26 -65 -57.5 -91t-83.5 -26q-64 0 -100.5 39t-36.5 105zM438 1018q0 169 221 356l82 -80q-71 -59 -101 -102.5t-30 -87.5q0 -42 25 -68t82 -45q-26 -65 -58 -91t-84 -26 q-64 0 -100.5 39t-36.5 105z" />
<glyph unicode="&#x201d;" horiz-adv-x="837" d="M90 956q70 58 100.5 103t30.5 88t-24 69.5t-80 43.5q25 64 56.5 90t84.5 26q63 0 100 -38.5t37 -104.5q0 -169 -221 -356zM416 956q70 58 100.5 103t30.5 88t-24 69.5t-81 43.5q25 64 57 90t85 26q63 0 100 -38.5t37 -104.5q0 -169 -221 -356z" />
<glyph unicode="&#x201e;" horiz-adv-x="837" d="M88 -207q70 58 100.5 102.5t30.5 88.5q0 43 -23.5 69t-80.5 43q25 64 56.5 90.5t84.5 26.5q63 0 100 -38.5t37 -104.5q0 -170 -221 -357zM414 -207q70 58 100.5 102.5t30.5 88.5q0 43 -24 69t-81 43q25 64 57 90.5t85 26.5q63 0 100 -38.5t37 -104.5q0 -170 -221 -357z " />
<glyph unicode="&#x2022;" horiz-adv-x="720" d="M35 473q0 135 95 230.5t230 95.5t230.5 -95.5t95.5 -230.5t-95.5 -230.5t-230.5 -95.5t-230 95.5t-95 230.5z" />
<glyph unicode="&#x2026;" horiz-adv-x="1536" d="M119 115q0 57 40 97t97 40t97 -40t40 -97t-40 -97.5t-97 -40.5t-97 40.5t-40 97.5zM647 115q0 57 40 97t97 40t98.5 -40t41.5 -97t-41.5 -97.5t-98.5 -40.5t-97 40.5t-40 97.5zM1159 115q0 57 40 97t97 40t97.5 -40t40.5 -97t-40.5 -97.5t-97.5 -40.5t-97 40.5t-40 97.5z " />
<glyph unicode="&#x202f;" horiz-adv-x="365" />
<glyph unicode="&#x2039;" horiz-adv-x="681" d="M55 459l561 393v-84l-243 -309l243 -309v-87z" />
<glyph unicode="&#x203a;" horiz-adv-x="681" d="M86 63v87l242 309l-242 309v84l561 -393z" />
<glyph unicode="&#x205f;" horiz-adv-x="456" />
<glyph unicode="&#x2122;" horiz-adv-x="2048" d="M94 1135v245h78v-28h588v28h78v-245h-78v127h-191v-494h140v-78h-476v78h138v494h-199v-127h-78zM920 1272v80h331l164 -357l170 357h332v-80h-129v-504h119v-78h-416v78h108v424l-231 -502l-231 508v-430h102v-78h-309v78h119v504h-129z" />
<glyph unicode="&#x25fc;" horiz-adv-x="942" d="M0 0v942h942v-942h-942z" />
<glyph unicode="&#xfb01;" horiz-adv-x="1695" d="M106 0v86h154v774h-154v86h674v41h86v-229h-84v96h-274v-322h201v89l86 2v-285h-86v92h-201v-344h154v-86h-556zM1061 0v86h153v774h-153v86h555v-86h-154v-774h154v-86h-555z" />
<glyph unicode="&#xfb02;" horiz-adv-x="1843" d="M106 0v86h154v774h-154v86h674v41h86v-229h-84v96h-274v-322h201v89l86 2v-285h-86v92h-201v-344h154v-86h-556zM1063 0v86h154v774h-154v86h555v-86h-154v-768h262v156h95v-248h-758z" />
</font>
</defs>
</svg>
